<mxfile host="app.diagrams.net" agent="Mozilla/5.0 (Macintosh; Intel Mac OS X 10_15_7) AppleWebKit/537.36 (KHTML, like Gecko) Chrome/134.0.0.0 Safari/537.36" version="26.2.9" pages="2">
  <diagram name="第 1 页" id="iRl5-WZskhOR-WXAQhHo">
    <mxGraphModel dx="1428" dy="766" grid="1" gridSize="10" guides="1" tooltips="1" connect="1" arrows="1" fold="1" page="1" pageScale="1" pageWidth="827" pageHeight="1169" math="0" shadow="0">
      <root>
        <mxCell id="0" />
        <mxCell id="1" parent="0" />
        <mxCell id="xO7IIF5kWU0KsEjzhjzZ-7" value="仓库" style="whiteSpace=wrap;html=1;align=center;" vertex="1" parent="1">
          <mxGeometry x="120" y="480" width="100" height="40" as="geometry" />
        </mxCell>
        <mxCell id="xO7IIF5kWU0KsEjzhjzZ-8" value="" style="shape=image;verticalLabelPosition=bottom;labelBackgroundColor=default;verticalAlign=top;aspect=fixed;imageAspect=0;image=data:image/png,iVBORw0KGgoAAAANSUhEUgAAA14AAAJSCAYAAADTbRQ9AAABUWlDQ1BJQ0MgUHJvZmlsZQAAGJV1kMErg3EYxz/j1aQVxUWsVqQdRmuGk8PsgKLWRnvJ5d272WR7/bx7hbsDB0c3bu6Ug3Ja+A9I+Quk3NRSrNfv3bCNPPXt++nbt6enB1rQhMgrQMGwzPj0lE9dWva5n1Fop5MBFE0vikgsNicrfHvzlB9wOX437Oy6MRIlz8HKi/ci+HR9lNz722+ajnSmqEv/kPLrwrTANSg5tm0Jh6XoMeVRkvcdztb42OFUjc+rnYV4VPKt5C49p6Ul30sOpBrybAMX8lv61w3O9Z6MsZhwXKqfEGEmGCfJ/D+9cLUXZQPBLiZrZMlh4SMiE0GejORZDHRGCEgOEZQac/77+2/1bCcFk+vQMlPPVBXO/NCr1rOhPuguwOWh0Ezt55uuslJcHQ3V2GNC25ttv3rBfQUV07bfT2y7cgqtj1Da/ASLY2AO111O4wAAADhlWElmTU0AKgAAAAgAAYdpAAQAAAABAAAAGgAAAAAAAqACAAQAAAABAAADXqADAAQAAAABAAACUgAAAACOgrnqAABAAElEQVR4AeydCZyN1f/HP8MMQrYZZI9kH/taQoiSJUJSoo1Q/fJLlhalUkhpk78l2fIraTGkLEkkZKesZd9nhowlM8PM/3yf8czcO3PvzF2ee+/z3Ps5Xtd9lrO+z3Pme7/P+Z7vCUtVAV6EuLg4REVFeZGDfVLmZ8/D3TPyc5eYfXzys+fh7hn5uUvMPj752fNw94z83CVmH5/87Hm4e0Z+7hKzj09+9jzcPSM/d4nZx/cXv1z2xfKMBEiABEiABEiABEiABEiABEjAaAJUvIwmyvxIgARIgARIgARIgARIgARIIBMBKl6ZgPCUBEiABEiABEiABEiABEiABIwmQMXLaKLMjwRIgARIgARIgARIgARIgAQyEaDilQkIT0mABEiABEiABEiABEiABEjAaAJhsbGxXnk1NLpCzI8ESIAESIAESIAESIAESIAEgo1AGN3Ju9el/nI36V6tMmKzfhksPDkiP0+oZaQhvwwWnhyRnyfUMtKQXwYLT47IzxNqGWnIL4OFJ0fk5wm1jDTkl8HCkyN/8aOpoSe9wzQkQAIkQAIkQAIkQAIkQAIk4AYBKl5uwGJUEiABEiABEiABEiABEiABEvCEABUvT6gxDQmQAAmQAAmQAAmQAAmQAAm4QYCKlxuwGJUESIAESIAESIAESIAESIAEPCFAxcsTakxDAiRAAiRAAiRAAiRAAiRAAm4QoOLlBixGJQESIAESIAESIAESIAESIAFPCFDx8oQa05AACZAACZAACZAACZAACZCAGwSoeLkBi1FJgARIgARIgARIgARIgARIwBMCVLw8ocY0JEACJEACJEACJEACJEACJOAGASpebsBiVBIgARIgARIgARIgARIgARLwhAAVL0+oMQ0JkAAJkAAJkAAJkAAJkAAJuEGAipcbsBiVBEiABEiABEiABEiABEiABDwhQMXLE2pMQwIkQAIkQAIkQAIkQAIkQAJuEKDi5QYsRiUBEiABEiABEiABEiABEiABTwhQ8fKEGtOQAAmQAAmQAAmQAAmQAAmQgBsEqHi5AYtRSYAESIAESIAESIAESIAESMATAlS8PKHGNCRAAiRAAiRAAiRAAiRAAiTgBgEqXm7AYlQSIAESIAESIAESIAESIAES8IRAWGxsbKonCZmGBEiABEiABEiABEiABEiABEjANQJhqSq4FtVxrLi4OERFRTm+6cFV5ucBNJsk5GcDw4ND8vMAmk0S8rOB4cEh+XkAzSYJ+dnA8OCQ/DyAZpOE/GxgeHBIfh5As0lCfjYwPDj0Fz+aGnrQOUxCAiRAAiRAAiRAAiRAAiRAAu4QoOLlDi3GJQESIAESIAESIAESIAESIAEPCFDx8gAak5AACZAACZAACZAACZAACZCAOwSoeLlDi3FJgARIgARIgARIgARIgARIwAMCVLw8gMYkJEACJEACJEACJEACJEACJOAOASpe7tBiXBIgARIgARIgARIgARIgARLwgAAVLw+gMQkJkAAJkAAJkAAJkAAJkAAJuEMg3J3IjEsCgSKQkpKCAwcO4NixY4iPj0dCQgISExNx+fJlFC1aFIUKFUJkZCTKli2LSpUqIVcuvlMIVF+xXBIgARIwEwHKDzP1ButCAqFNgIpXaPe/aVsvgnL16tXYsGEDNm3egn1796BM2XIoXrIUihaLRAGlaEXkyavVP/7oSVxK2ItzZ+MRe/okjh87iipVq6Fhg/po0qQJWrRoQUXMtD3NipEACZCAsQQoP4zlydxIgASMI0DFyziWzMkAAuvXr0fMokVYtnQpqlaviVr1GqHvwCGoHl0P4RERLpVwNTkZu3duxc6tmzDt088wdOhQtGvfHp07dULTpk1dyoORSIAESIAErEWA8sNa/cXakkAoEqDiFYq9bsI2L168GLNmz0GSUppatO2AaV8sRrHiJTyqqSho0fUbax/J4GzsGaxcuhhvjxuPPOpe30f6oGPHjh7lzUQkQAIkQALmIkD5Ya7+YG1IgAScE6Di5ZwN7/iBwKpVqzDpk8nIkzcfuj70GG5vdZfhpYoC1/3hx7TP2lXL8b8v52lK3uBBA9GqVSvDy2OGJEACJEACvidA+eF7xiyBBEjAWAJUvIzlydxcJHDlyhW8/sYb2LZtO3r27Y872/tnBkoUO/n8rGbAxr8zAcuWL8eoV15Bvnz5XKw5o5EACZAACQSSQODlxyLKj0A+ACybBCxMgK7fLNx5Vq3677//jg4dOiAsTwFMnhfjN6XLlpcoelK21EHqInViIAESIAESMDcBc8iPTpQf5n5MWDsSMC0BzniZtmuCs2IxMTGYPXs2+g8Z6ROzQnep9X9uBGrWbYBhw4Zh4MCBaNOmjbtZMD4JkAAJkIAfCFB++AEyiyABEvApASpePsXLzG0JfPjRR1i95leM/WQmSpUpb3sroMdieljp1qp4d/RIHDp8GMOVEsZAAiRAAiRgHgKUH+bpC9aEBEjAcwI0NfScHVO6QeCdCROwddsOjPtklqmULr0JogiOnfQZdu3ZB6krAwmQAAmQgDkIUH6Yox9YCxIgAe8JUPHyniFzyIGAvKnctXsvXntvitqLK08OsQN3W+r2+sSpWl2lzgwkQAIkQAKBJUD5EVj+LJ0ESMBYAmGxsbGpxmbJ3Eggg4DY5C/5cak202VmpSujxsDV5CQMH9QXHe5Wmy537mx7i8ckQAIkQAJ+IkD54SfQLIYESMBvBMKjoqK8KiwuLg7e5mFbAeZnS8P9YzPxE+9T4khD1nRZRekS4lLXoa+Nw4hB/VCrVi00btzY/Y64nsJM/eGoEayfIyquXyM/11k5ikl+jqi4fi2Y+VF+AMHcv46ecrbXERXXr5Gf66wcxfQXP5oaOqLPa14TkH1WRowYoXkvNJMjDVcbJnUWz4vSBmkLAwmQAAmQgH8IUH74hzNLIQES8D8BKl7+Zx4SJcrmyM1atjWFy3hPgYu3Q2mDtIWBBEiABEjAPwQoP/zDmaWQAAn4nwAVL/8zD/oSV61ahW3btkP2yLJ6kDZIW6RNDCRAAiRAAr4lQPnhW77MnQRIILAEqHgFln9Qlj7pk8no2bd/0LRN2iJtYiABEiABEvAtgTT58aRvC/Fj7pQffoTNokjAAgSoeFmgk6xUxcWLFyNP3ny4s31HK1U727pKW6RN0jYGEiABEiAB3xDIkB+dfFNAAHKl/AgAdBZJAiYmQMXLxJ1jxarNmj0H93bvbcWqZ1tnaZO0jYEESIAESMA3BCg/fMOVuZIACZiHABUv8/SF5Wuyfv16JCUnW9qhhrNOEEcb0jZpIwMJkAAJkICxBCg/jOXJ3EiABMxJINyc1Qp8rVJSUnDgwAEcO3YM8fHxSEhIQGJiIi5fvoyiRYuiUKFCiIyMRNmyZVGpUiXkykUdNmbRIrRo2yHwneejGkjbpI1Nmzb1UQnWyZbjwzp9xZr6nwDHh/vMKT/cZ2bVFBwfVu051tsIAlS8rlOUPwSrV6/Ghg0bsGnzFuzbuwdlypZD8ZKlULRYJAooRSsiT14tdvzRk7iUsBfnzsYj9vRJHD92FFWqVkPDBvXRpEkTtGjRIuQUMeG3bOlSTPsieNdBtVZrvZ7s1RFvKvfyoaZoc3wY8eeWeQQrAY4P73qW8sM7fmZPzfFh9h5i/fxJIOQVLzFvkDdtojRUrV4Tteo1Qt+BQ1A9uh7CIyJc6ourygRt986t2Ll1E6Z9+hmGDh2Kdu3bo3OnTiEzOyJKq/ArVryES8ysGEnaJm2UtrZq1cqKTXC7zhwfbiNjghAiwPFhTGdTfhjD0Wy5cHyYrUdYHzMQCFnFS7wnyUJeWbcjJmQyU+Op0iAKWnT9xtpHOvVs7BmsXLoYb48bjzzqXt9H+qBjx+Dx8ufowZWZQlFaXQmiqCI1FeF58rgSHZcuXsCVf/9FpItKXbziXywqCmFhrpt/Xr50UatL/gIFs62TtFHaGuyKF8dHto8Bb4Y4AY4PYx8Ad+TH0UMHUOKm0sibL5+xlbieG+WH91g5PrxnyByCl0DIKV6yOaPsEyLuwbs+9JhPHEGIAtf94ce0z9pVy/G/L+dpSt7gQQOD9ge7mGfKTGFO4djhQ3jk/ru1aLMWLEG5mytlSXL+XDz+OXc2/fqib7/CV3M+w8wFi+1M/IpFlcCNhQqnx5OD98eOxtxP/w9fLF6JAgUzlKjixUtqip4I1eVLYrBvz5/4a+9unI2Pw8Kf1mP86BdRUOU19OU37PLLfBJdryFmTZ6Y+XLQnHN8BE1XsiE+IMDx4QOoKktn8uNsXCwOHfzLrtDhTz+JNnd3RLuOXeyu31yxsnrhVly7tmHtKiUHptjd10/6PPEUGt/WUj+1+6b8sMPh9gnHh9vImCAECYSM4nXlyhW8rtbmbNu2Xdvc11/7TIk3PPn8rGbAxr8zAcuWL8eoV15BPh+9rQvEMyz227ImTswzswt7d+3E4w90wYjRY9VsVBge7NQWn365EFVrRNslmzbpfXwxazpKqPV1eihQ8EYM7vegfqp9D35+JO7t2kM7llmxD8a/gS9VulKly+Hpfr2060nJiTjw1358u3wt6jVqivP/nMW2TRvU53e0vvtePPnMf7W6/Lj4W1SrUQujhj6dXsag/47ATaXLpp/LgbRR2iptDqZ1Xhwfdt3MExKwIxD48bEoJOXHzm1bMP3jd7W+2KFM+WWm66ZSpfHn9i34YeHX6gVdPGqrl2ESnnj6ebRs2147PnLgoPpbfw7PjRilnev/vT/2dRw9dFgpXvqVtG/KD3se7p5xfLhLjPFDmYDrtlgWpvT777+jQ4cOCMtTAJPnxQRkc19R9KRsqYPUReoULEG8P4ojkuzWxM2fMwMPdWmHl958Bx279dQUplfeele7Jvcyhwf6PIaYnzdon+q1ovHogGfSz/XronSlpqZgygfvoGW9Kjhx9DDemTQDP67bnv5p1LQ52t/bRVO6pIwy5W7Gf5Qwrlj5Vk2AX7t6DbOmfoySJUujh5oBbXJ7SzRq1hyzp09GRERWU0hpo7RV2hwsgeMjWHqS7fAFAXOMj04hKT9EkXpvyiyM/XAa7ul8P2rWrqsdy3lk8eJ44pnntfOJU+ekK136M1C85E2orzQs20/k9RkxPQ7lh07C82+OD8/ZMWVoEgj6Ga+YmBjMnj0b/YeM9IlZobuPTf/nRqBm3QYYNmwYBg4ciDZt2ribhenii8t98f7oKIhp4cj/9MeRQwfxwbQ5qNuwibZmS+I2v7Mt3p86G6NeeAbffjkXYz+aigrKXEQPrepXxTGlTElY8cMivPny8/otbVZLFCxZx5WUlIhp875F4SJFMOiRB/DTj4vx/Euj8drw53BRzYRNm/ddejrJ542X/otTJ07gt9UrsXTxd/j7r72YOX+xco6yBXv2/IH77u+FSkoxc7amTNoqba5cOaOu6QVY7IDjw2Idxur6lQDHh+9xZyc/pPQnet2HCxfOKyuR/EhOTsKTvbtqlZLjH777Gt9+MQfFIqOwYOmvdpVdoUzKOzSvb3ft+NFDaK4sUPRA+aGT8Oyb48MzbkwV2gTCg7n5H370EVav+RVjP5mJUmXKm6apYnpY6daqeHf0SBw6fBjDlRJm5SD7nInLfUdh1fIlin057a3k7bWzrueSNLuOn8e410Zix5ZNmuIlzjci8uTBrzsPKGVrKM6pdVhvTpikmRKKmWLm8MwLL6df+nr5r7j/ruZoXL08ej7UTyl7cxGRN20bAIkks2T1lPJ3W3RFPD54CJ4d9ooyPTmAshVuxqb1a3Hhn39QUpmyjHr7/fQ8Mx9IW6XNVg8cH1bvQdbflwQ4PnxJNyPv7OSHHuuTmV+qddl58WiPThgzcRL+OXsO7415VVv3e/rEcYweab++WMzIK1Wpoie3+654i/11yg87PC6fcHy4jIoRScCOQNCaGr4zYQK2btuBcZ/MMpXSpdMXRXDspM+wa88+SF2tHGRzadnnzFF4+IlBGD/pU+QvWACFCxfGoX+u2X0kTb58N2D0Ox+hk5ppkvCP2h8tUr3BlNmy6R9PxNNqLVdS0hX8b+ZU7b6j/8RRxkcTxqBN4xrYs/sP9Os/WFuAvXLZEixd9C32/LkjPdn/fTBeO37vrdew+Jv5OHbkEHrc3SL9/lujhkOccDgL0lZps5UDx4eVe4919zUBjg9fE87IPzv5ocfasHY1ura9DV17Paw5xrjr3s5o0PQ2dFMv2f7av1ePpn0PHfQo3nrlBcz7bKr2SVUedM+cOpV+Pka9zHvxPwPs0lB+2OHI8YTjI0dEjEACTgkEpeIlb2J27d6L196botYd5XHa+EDfkLq9PnGqVleps1VDYmJi+ubS7rQhUTk8cRRkY2ox89u5bbN2+86GNVCnYgmcP38eNxfJrX10wblowTw0j66Etk1qYfpH7yJKeS9s1bYdDh3Yj//Nmqp9Jrz5iuasQzI7c/I4lqhF2bLua6SaPRPzxflzP0Pt+hmu8G9v0QbLvs8wT8xcR9lIW9ps1cDxYdWeY739QYDjwx+UM8pwRX78qF6edez2gGb98KoyTX9t2H8QHh6uLEeqYPn3CzMyU0cL5s1GtDLnr6P+ph8++DcO7N+HP5QzDnG2Ideq1aqDecoJkwTKDw2DW/9xfLiFi5FJIAuB8Li4uCwX3b1gRB62ZXqTn9gci3mhzHRZJbw87iMMH9QXBQsUQOfOnb2utjf8HBWeU36XL192lMzpNVG4nn28N+LjzihFqQRy5c5tF1e/3qxFaxw8p/b8UkHcy7dSDjS2Hcp4Xres/wXHDu7Di2+M1xZWDx34qDZr1uG+7nb5TVMK2fHra8U+nfwhxHHHKaWAlSpTFt8sXYvOrZtg/MfTNecckrDNPR01heyKale+/Pnt8tJPpM05cdHjuhpPj5/Ttzf5cXzA5X7LqR/0+970h56H7Tfzs6Xh/rE3/Dg+/D8+XJEfr46dqCwTDmPCG6/gwX5PaA/Fl2qLkaGvvIHiSoZkNjXsoywtcivFbO+uP9IfoLrKq+0j/Z+G/F0f8/ILoPxIR+PyAceH/8eHy51zPaI3f/8clcX8HFFx/ZojfuFRaqNZb4Jk6m0etuV7k5941xFHGrKmy8wzXbbtlWOp69DXxmHEoH6oVasWGjdunDmKy+fe8HNUiCv5FS1aFPFHTzpK7vCabHwpng3/VQKwfuNm+OmHxVij9jt7bdwHuJqUhP17dqkZq78xc8rH6ekTE//VZryeejhDqbqny/0oXqIU8obnUnt23ZgeN7uDyrdWQ9t7O+HNl4Zq0f7ev0fxD0eL1u3UrNg07ZrsBXNrtRr4ddUKtO2QVRFOVs48iioHG648967wy66+me95kx/HR5rQdKXfMnN3du5NfzjKk/k5ouL6NW/4cXwEZny4Iz/Ek2F9pUBJWBLztesPhoOY9Zu2xAG1NQjlhwM4Di5xfARmfDjoCqeXvPn75yhT5ueIiuvXnPELGucaso/EiBEjNO+FZnKk4WoXSZ3F86K0YcmSJZba56uQWvN0KcHezt5Ru8VU8IBSdCop5Udfz5Wg9tWa/P44zURQ0qz7dZXmsfCOO+/SPFXp+Vy8cAGrVixDt1599Eu4pUo1FClSGBNfH4E614Xxwq/maWYl6ZHUwdaN69VeYbW0Sz36PGp7S6Uviv+OHK2UrwjYvnnt+kAfdX7JLq5+ckmt7ypUqKp+aolvjg9LdBMrGSACHB8BAq+KdVV+FFNKl4SxyhGThPDc4ZpTp4SE82pPRXuribdeHa7tz7h5wzrUaZD2InOVWu8rlhPyck8Pre7uRPmhw8jmm+MjGzi8RQJuEggaxUs2R27Wsq0pXMa72Qfp0cXb4Z9qXZO05a0xY9Kvm/0gMjISsi4ru1C0WBTuaNUGrRvV1Jxs6HFFGavboBH6q/1YJBw+8Jdm6ideBuWjh/Nqo0xxztG+U5orYf26fLe+5z6s+nGRdukGZRpYWClTtiG/MuF0FqKVzb98nn70AaxZuRyDn39Ri/rQY/aLr23Ta2vQVJutFDg+rNRbrKu/CXB8+Jt4RnmuyA+JXb9RM3wesyIjoToaNvhxiAOljl172F2/+eZKmuK1Q20xoociRYtBricrr7l6iFL7N1J+6DScf3N8OGfDOyTgLoGgULxWrVqFbdu2axtMugvAbPFln6+BvTtD2tSqVSuzVc9hfcqWLYvY0zmbGs75bpnD9LYXxQvixQtZPQYWKFgIn3+33DZq+nGbjt0wdeKbeKjv46inNkzObHbY65HHlLC9mh5fDoaPGqM8LWaYJ456eyKuXbumub63i+jgRNoqbbZK4PiwSk+xnoEgwPERCOoZZeYkP2Z+/T1uvLFwRgKboxdGvYn/DB+FMuUrpF/9K/aKZsEgF3o/OgBhucKQmpKq3dfXE8saMD2I/Jg2cQzlhw4k0zfHRyYgPCUBLwkEhVfDSZ9MRs++/b1EYZ7k0hZpk1VCpUqVcPzYUcj+W0aEgjdmdU0vpoC16jVwmv3tLe/Crp2bsyhdkqBw0UhElShpl7ZEqTKwLafETaVdUrqkjdJWabNVAseHVXqK9QwEAY6PQFDPKDMn+SHWEvL331GQzextlS6JYxtXFC3ZJFm+5aMH2zhy7TZlLbN75xbKDx2QzXfa+HjS5oq1D632+8ratFl7RwQsr3gtXrxYbayYD3e27+iofZa8Jm2RNknbrBBy5cqFKlWrKcG1NWDVrVm/CYoVK46fFn/j0zpIG6Wt0mYrBI4PK/QS6xgoAhwfgSKfUa5Z5IcoeJQfGf0iRxnjo5P9DQufWe33lYVRs+pOCFjj16OTysvlWbPn4N7uvbOJYc1b0iZpm1VCwwb1sXPrpoBWVxZKr/zhO8SdPuGzekgbpa1WCRwfVukp1jMQBDg+AkE9a5mUH1mZmOEKx4cZeoF1CDYClla81q9fjyRl+iVOKYItSJukbdJGK4QmTZrgj60bA1rVzAulfVEZaaO01QqB48MKvcQ6BooAx0egyGctl/IjK5NAX+H4CHQPsPxgJWBpxStm0SK0aNshWPtGa5u00QqhRYsW2Lv7T5yNPRPQ6spC6bNnY/Hnlg2G10PaJm2UtlohcHxYoZdYx0AR4PgIFPms5ZpJfpw7G0f5obqI4yPrc8orJGAEAcsqXikpKVi2dClaB9HarswdKm2TNkpbzR7ETr9d+/ZYuTTw69LE0cbaXxx7QPSGo7RN2miF9V0cH970NNMGOwGOD3P1sJnkhzja+O0Xe7f1RtCi/DCConF5WOn3lXGtZk5mIGBZxWv16tWoWr0mihUvYQaOPqmDtE3aKG21QujcqRNWr1gS8Kr6ytGGtE3aaIXA8WGFXmIdA0WA4yNQ5J2Xayb54QtHG5Qfzvs+EHes9vsqEIxYpm8IWFbx2rBhg3Iv3sglKuIC3Ha3+pwSXbp4AfE5mMz9e+mSXTapqSk4c/K43TUjTqSN0lYrhKZNmyKPcvu7dpXxs03utt9oRxvSJmmbtNEKwZ3x4Up7rl213wdN0sgYcLTnmtyTMZQ5+GKMWGl8ZObB88ARcGd8HD10AIlXrhhaWcqPrDgpP7IyCdQVd8aHK3VMUXtkyt9/V8OF8+fstqeR8SJ5GB0oP4wmyvxcIWDZDZQ3bd6CvgOH5NjGY4cP4ZH779bizVqwBOXUzvWZw/lz8fjn3Nn0y4u+/QpfzfkMMxcstjMrKxZVAjcWKowrly/jjrqV8e3ytShb4Wb1ByEFyUlJ6NymKabN/QY1atfT8sodnoF37vRPsOJHx+u1Wre7F4/0fzq9fNuD6HoNMWvyRNtLpj7u+0gf/O/LeQF3eGLraKN73wFeM/t+wTxI26wSXB0frrRHxtBDXe7CL9v220X/+n+z8Nf+vXht3Ad212WNRKt6VbD9cMaYkggnjx1D59ZNsGl/zptt22WYzYnVxkc2TeEtPxJwNj7OxsXi0MG/7Goy/Okn0ebujmjXsYvd9ZsrVkaxqOLatQ1rV2Hup1Ps7usnfZ54Co1va6mfUn6kk8h6QPmRlUkgrjgbH57W5f1xr2u/pZ4b8Sq2blyPGZPtZUbDJreh74Bn0rN/sPNdGP/hNNSok/Zbqv9DXVEtug4efjRtv9YbCxVJH3vpiTw4oPzwABqTeE0gQzPwOiv/ZSD2+fv27kH16LRB6azkvbt24vEHumDE6LFqE8UwPNipLT79ciGq1oi2SzJt0vv4YtZ0lFCbMeqhQMEbMbjfg/qp9j34+ZG4t2sPzJ87A9VrRmtK3JLvFmBQvwdwU+nSWpwnH+6mfZ86cQJbD5yGmCxI2LPrD0Sr2asHH3lCO9f/+9/s6di3Z5d+muVb2ihtlTZbYW1Rx44dNTf4P6v1UIHeW00cbUyd+Ka2UFrMDz0N0pakxCuQtlkhuDo+PGmLvLWsWDQCh/4x/u2jJ/Wx2vjwpI1MYyyB7MbHzm1bMP3jd7UCd6itI2Rj9ZtKlcaf27fgh4Vfqxd08aitXoZJeOLp59GybXvt+MiBgzj/zzk8N2KUdq7/9/7Y13H00GGleOlXQPmRgSLLkdnkx7SJYwyQH4tCVn6IFdDnM6dhw9pfkJqSqvV32bIVtLEyZORr2vmm9WvV/dV2ipftgyG/sWQsnlMvx9et/hl/bN+Kp/7zgva7zjaeJ8eUH55QYxpvCVhS8Tpw4ADKlC1nt0N9ZhDz58zA+NdfwhsTPsY9Xe7XboerGaiHurTDsFFj0LPPY3ZJHlDn+h+C4c88gaa3t0LXXg/bxZHd7sXk6tNPPsCEyZ/irVHDcOnCBfR8qB/GT/rULm7rhtXS/9DoN3bt2Irvv/tKP9W+d+/cppS2snbXbE+kTGmrtLly5cq2t0x7PHjQQIx/Z0LAFS8BpDva8Ebxmj9rKoa9MNS0vDNXzJXxkTmNs3Mxud2rXhokJl3Bn+pHaRW15lAPqamp+Hvvbox55QVNIE6Z8zX+/fcy9inPj+fPn8fqn5Zq8SdPHIfe6k3ljTcW1pMa9m3F8WFY45mRRwSyGx+iSNWIrq1+KCfho3fexJUr/+KFV8Zo5Tzz+IPo/nA/dOv5MPLmy4eoEiXtyi9e8ibUt9Ww1N3I6zNiekTKD52E828zyQ/d0YZ38mNayMqP3OER6sVFGRRUL7IllFQvMiTIuLiQcB5LF3+HO++6R5sFk+vycuMD9bJiz+4/MLBvTzRsdjtWLIlRlkZF8OrY91SaC3jzpechL8GNCJQfRlBkHu4SsKTidUyZLBW3mZ2ybbSYRY38T38cOXQQH0ybg7oNm6SvN2l+Z1u8P3U2Rr3wDL79ci7GfjQVFZS5iB5a1a+KY0cPa6crfliEN19+Xr+FUqXL4cd12/G/mVO1t54zPvkQWzdvwPMjX8cLSlFbuczeqURcpjViXXr0Uj9Id6fnpx/cqcwMq1Svrp86/Ja2Sputoni1atUKy5Yvx9T3x6L/cyMctslfF0VginL70+JvIDNg7gZpQ926dSBtskrIbny424Zl3y/UzEJkBne4GlcfTp+rZfH4A53w09IlqKBMd1spwRkXe1rZ8Kfi99/W4MdF32hxZk+bhAf79sf2LRvRpceDmuIl4+JVNf4kDP7vCJRQQtnbYLXx4W17md47AjmNjyd63YcLF84jX778SE5OwpO9u2oFyvEP332Nb7+Yg2KRUViw9Fe7isgPxA7N7TdXP370EJrb7DNJ+WGHzOEJ5YdDLH67mNP4cKcikcpB2IP9nsTJE8e0ZHL8vVrKISE5KRlX1Is62yAvyWsp88I76t6Kl958B1Vr1sI9nbppylu/nh1VmkT8L+YnbcmHbTpvjik/vKHHtJ4QCPckUaDTxMfHKxO+SIfVWLV8CUqVKYexyj749tpZ13NJol3Hz2PcayOxY8smTfES5xsRefLg150HlLI1FOfi4/DmhEn4YPwbWaazb6lSDYP+OxJzpk/G0+o7SQnjhx8bgBffGJ+lPjfkz6/cq3+fZZYrc8QtG9fhi9kz0LHrA7iz3T2Zb2ttlTZbKYx65RV06NABNes2CPh6L3G0MfH1EajTqClk7ZerQRxqrFNuhZcssVeqXU0fqHjZjQ936ySC8o4779LWeC38aT1uicqrZdGyTXtUq1VHe6nx+OAh+PyzKcgdnlub2bqnSzdtjdf0L2K0uB9NeDO92MKFC6P4TWkmvfI21IggfwusNj6MaDfz8IyAK+Pjk5lfIk/evHi0RyeMmTgJ/5w9h/fGvKqt+z194jhGjxxiV3jru+9FpSpV7K7pJxVvybhO+aFTyf6b8iN7Pr6868r4cLV8eRnx0TtjcPr0CeUs4yp+Wf4jGjdvoSUX64h8+W7IktVM9cJOwotDBmLZuh1qFrmZ9ntNrkXkyYuZUz/G0Ffe0MyA5Zq3gfLDW4JM7y4BSypeCQkJKFCokMO2PvzEIO26LPCXH3mZF/jfXCS3NthHv/NRevp/zsajmlqzJbNl0z+eiJ837UKSMq2St5OyPsw2NGvRWjstVLgIevV9Eh8qc5RFX3+BuTOm2EbTjtcoZwQ3qan16Dppb0E/fvdtdOnZG+XKVcgSVy4Ud+IaX9oqbbZSyKdMccaOHYthw4ah0q1VlTJcPmDV98TRxsnjR9T6sLcxfvx49bzkC1jdPSk4u/HhSX56GnEWs1k5xmhwaynNGYw4jBHnGhIuX76EAgUK6FGdfovgfPr5F53e9+SGFceHJ+1kGmMIuDI+ZM3Je2+9ikcH/kdzjJGq1jb+okxnu93VHM+//LpdRYYOelSZlaekX5OXFbGnT2PFD2kvHuRG3rz58NYHU0D5kY4p2wPKj2zx+PSmK+PD1QrUadBIU5JE+apeqzba3tNJs0aKO30KZ06dUC9Cb7LL6vKli2pGbD7Kqt9ITW6/A73VuvyTJ46iY7cH8NPvf2hr9ce+OhJ3NamF19Uyki49etul9+SE8sMTakzjDQFLKl6JiYnamw93G+7MJfA5pXjJlPjObZu1LO9sWCM9a1HUJPTu+4QmOFcvW4Rhzw1CtRq1cH+75qhQ6Rbtzctr4z9Us2Cf4Em14PqIcj/868/Lkar+iVce+YgnxNdGDFHT5l2RL6/9W54bixS2M3lML/z6gfxYlTZbLTRu3BgDBw7Eu6NHYuykz9SavDwBa4I7jjauqllMqbPUXdpgteDp+HClncWi0pzFpMdV5oWvDf+P5lr+0qULKFSkWPotfx1YdXz4iw/LsSfgyvj4cdG32o89sX7QTWNljXClW6tguTK/tQ0L5s3Ga2Mnas6PYtRLuAP79+Hwwb81BwItWrdT6yOTMOblFyg/bKG5cGw2+eGqow3Kj4zOFTM++Yx56QUcO3JIrblug4Tzaabof6uXdjWve4CWFPKyc/n3MWijll9sV840HnlyMNasWoGDKp6Mw5H/eSo9445de+KWylXTz705oPzwhh7TekIgPC4uzpN0dmmMyMM2w5zyu6yUGHeCKFzPPt4b8XFnEKUUrFy505QpPQ/9uryNPHguWbss7uXFJfa2Qxl85A+DKGdNGjdBuUq34q57u2LCGy9rXq9+Uq7iz5w6pb3llPyOHzuiZ699i4tisV1+bfhzdtcvKCcEFZXTjJkLfrC7nvlE2pwTFz2Nq/H0+Dl9e5NfmzZtcOjwYbw+7Gm8PnFqTkX59L6rjjakrg0b1IPU3Zu2640xIg89L/nOKT93x4dt3s6OxbmGbLEQXS9t9jY9nvIWWlJ5ffv4sy+wWnl/rFKzLm5WM5ziXENcbP972dj9j9LLzXRg1fGRqRnaaU796yhNdteYnz0dV8bHq0qROnbksPr7/opao/KElsGX6vkXEyexTMhsathHWVrIjLA4otFDXWXaLNuEyEs3UbwoP3Qyrn+bSX646miD8sO+f5PVS2NxlnFTmdIYPeI5tSzjHTS7oxU6tKivrQl++4P/w5vvfYLlMfNx4uhB9HvqGQwZ0BcRyhRdrCOefvQBtRa4NOrUT9u3VV5q573hBrWPawP7grw4o/xwDo/ywzkbV+444hcelfkNtis52cSRTL3NwyY77UdlTvkVLVoU8Udd3wtIPFB17NZT/Qi8rNkL//TDYvUmZbm2/5BsrLxfuXM/dOBvzJzycXpVEhP/1X48PvVw9/RrsvBz8LDXsGPTemz8bRWWxXyF+DMn0eKue3FEveG8ei1ZzUxdUa7fU5X3Q3t329Vq1sbiXzal56UfiJniquXZK12yoLSoemuUExfJMxD9obfF2fdwZW74zoQJeO2/A/DyuI8CNvOVk6MNeVMpQrNWjWp4YehQZ81x63og+sPd8ZFdg37/7RfM+2waxLnGj8pBSZM70uzzJU25m2/RHBCIp7dP1DouGQuFIm/CVGWuK+H5pzI8hWoXfPSf1ceHLZZAPC+25ed0HAz1c2d8RBYvjvpKgZKwJObrnPBke1/MrSk/skXk8CblR5RDLp5cdGX8ujM+XKmDmOjWUVswTJ61QNvHcd2aVTj09z6UVOutC6vfcnmVRc+2Tb+pmbB/8NzIN5BPrY3PHJrc1iLdO/UFFe+Q+r1lVKD8cE7SlefFeeqsd5hfGhNLmhoWUmueLiWkrS3J2rUZV+St+4H9e5R5SDV0ur+XdiPhn7OY/P44NfOV5gp43a+rNI+F4kBAPFXp4aJyE79qxTJ069VHvwRZGC2OMEYPe05bLHpzhYrqD0oDJP97AQ3ULNgptWfFvff11EwNbW3+0zPIdCA7sW/+fZ16E1Qu0x3700tqfVehQsZMq9vn7L8zUWQ+/OgjDB/UF0NfGxewNV/OHG3I22gxL5SZLqOULv/RtS/J1fFhn8rxmexBVF050Xh5zLua+2xZ6yLh8IH96XsYyfmxQ3+jpPphKdsriCfR/740GmWUnf7WTRs0gSqObI4UO6h5pVr7y0+SBGXLV8jWxFaL5MJ/wTA+XGgmoxhEwNXxUUwpXRLGKkdMEsJzh2uOjhKUG+xcueytJt56dbi2/mTzhnWo0yDNPHmV8nQrlhPyck8PlB86Cfe+KT/c4+VNbFfHhytlyGzvGy8+j8cGPosb1BrgybO/wk8/LsYn772NGfMX4YNxb+CKesm9Sa2pTEq+5lDpknLEM24epaBJkFllmfEyKlB+GEWS+bhKwJKKV2RkJGRdVnZBNi6+o1UbtG5UU3OyoccVZayuWvDZ/5k0V/GHD/yFNvd0RNkKN2uf9Hhqo0xxztFercmyDbIp87BXx6ip8jsh+7p0fehRrFKeC8+fjUXpUjch9tRx5Vr+e+z5Y4dKX8Q2afrxMrV3hZieXFILSWXT5olTZ6Xfc3SgrUFTbbZ6ePaZZ1BQ/fEdMagf+g8ZGRBvh44cbYj3QnGkIWu6xLTF6sGV8eFqG+/v/Yhd1LCwXOh8/wNoWb9a+vXy5cujWrXqGPDfF9Wax1vTr588fhRTPnhHKVg3p2+3ID9K5ZqETsqLp+12DukJ3TwIlvHhZrMZ3UMCro6P+o2a4fOYFXalDBv8uPYsd+zaw+76zWpbhTBldrujSMbf/CJFi0GuJyuvuXooUKCgQ/nxTzzlh87I2TflhzMyxl53dXy4Uuq38z9XL5bLQExxJbw3ZhQuXryAH3/brnmfrhFdFy8+2185IbtJ/SZw7nRpi3pBfeL68o3DyjqpQdPbXCnepTiUHy5hYiQDCVhS8SpbtqzyGpWzqeGc75bliEq8IF68kJAlXoGChfD5d8uzXK9aIxrykfDOpBnIrwTpzWovsAjlevioUuL27NiMTl3uw7NDR6ppdMfKknj2aXRbcy0PURBzCtJWaXMwhM6dO6NWrVoYMWKE2pB3c0D2+bJ1tLF29c+ay3jxXiiLuWUq3OrB1fHhaTs//HQe5KOHL2dMQvXaDeyULrkn2zrM/uZHPZrPvoNpfPgMEjNOJ5DT+Jj59fdON/t+YdSb+M/wUSijZmv18FfsFWU+nbY1Qu9HByAsV5jycpiq3dbXE+s/PHOSH7spP3SsDr/NIj90RxuUHw67Kf1iz4cfRQe1vYg+Dt54d5LmyEyPIF6jy5ctrRyQNUDdxrfrlzFlztfqpfRN2vmLr7+jnDYVQcEb0zxZi8fqZJtZ5PREHh5QfngIjsk8JpDL45QBTFipUiXlvOKo2hci402iN9XRB7RtHiJIc1q8KUqXBNkEVhSo2g2boudjg1G7flMcV8405qsfpLIeLHOQP0IS3xWlS9oobZU2B0sQBUf2xkpNuoSBvTvjZ+WUwd+hcJHimPV/H2h1kLpY0XuhM2ZGjw9n5ch1/fmWZz8QIRjHRyA4hlKZOY0P+busK1KZuYiHNlulS+7bxpW/7TIrLN/y0YNtHP2aI/nxwHX5cYzyQ8eU5Tur/FiUJY6vLxQqEkX54QJkcThj+wJavEfbBpEfudU4sVW65L6MMXmZLaF0ufLpSpecy/gsobbpMSJQfhhBkXm4S8CSM165cuVClarVsHvnVkTXN5+7b/kRKh/5oyIzYPKppmYEPPlxKm2UtkqbgynIPi1vjRmDVatWYdInk7F80de4t3tvn5sfilnh9wvmIUk5QYmuVRN16tSx3D5dOT0H/hwf8oZeZrsCFYJ1fASKZyiU68/x4QlPW/kh44vyIyvFrPLjG8qPrJg8uuLP8UH54VEXMZHFCVhS8RLmDRvUx06114MZFS/9mbAVoJ4qYNJGaWuwhlatWkE+ixcvxqzZM/DlzClo0bYDWrfviGKZ3o55yuBs7BmsVLNqq1csQR41k9n3kT7o2LEjTin3/0OV048mTZpoNuae5m/GdP4YH4Ge7RLuwT4+zPhsBUOd/DE+vOVkKz88VcCCfXxQfnj7lDlO74/xQfnhmD2vBj8Byype8mN52qefWaKHbAWouwrYH1s34snHH7VEO72ppChC8lm/fj1iFi3Ck706omr1msrcs5HaO6ohqkfXszPpya4sMR+QmRD50SH89u7+E+3at8fI4cPQtGmGSZws6O3RowdiYmLQv3//7LK03D1/jI9Av62UTgmV8WG5B9DkFfbH+DAKga38cFcBC5XxQflh1NOWlo8/xgflh7F9xtysQ8CyileLFi202QqZzTBqZsTX3WYrQF1RwKRtojRIW0MliGIknzffeAOrV6/Ghg0bMGvyROzbuwdlypaDrLEoWiwSBdSWArLjvATZh0Ncwop3IlkoK2vixDxT3tqJ0ir8nJlqdunSBW+//TY2b96MBg0CZzJndP/6enyY4W1lKI4Po5+TUM3P1+PDF1xt5YcrClgojg/KD2OePF+PD8oPY/qJuViTgGUVL/khLbMYYkLW/eHHLEXfVoBmp4BJ26SNzpQGSzXazcpKm1tdN0OUpCkpKThw4ACOHTuG+Ph4JChFKzExEbLjvGwuLfuciRtc8Vgmi+fdYdauXTssW7YsqBQvX48PM7ytDOXx4eZwYvRMBHw9PjIVZ+iprfzITgEL5fFB+eHdI+fr8UH54V3/MLW1CVhW8RLsnTt1wtvjxltO8dIfGVsB6kgBkzVJYh7HAE2Rqly5MuRjG4zYCV1mumTGa+HChbj99gyXtrblWPHYV+PDDG8rpT84Pqz4VJqnzr4aH/5qoa38cKSAcXxk9IQoEpQfGTxcOfLV+KD8cIU+4wQzgVxWbpyYFYizBPFUZ+UgAlTc0IvnQ1HAxA3913Oma22TNjL4noDsD/PVV18hNjbW94X5qQRfjQ8zvK2UMS9jn+PDTw9TEBbjq/Hhb1QiP8QNvcgPGZuUH/7uAfUSmPLDZeiUHy6jYsQgJWBpxUv6RDzUiXvwYAi2CtiW9WtQ5dbK2LhxYzA0zfRt0B1trFixwvR1daeCRo8Ps7ytlDEvbWMgAW8IGD0+vKmLt2ltFbCtlB/e4nQrPeWHa7goP1zjxFjBTcDyipd4M5I9mQKxCa+vHo34+Dgkqp3Z77vvPmzatAmTJ0+mAuYr2Db5iqONc+fOaWaHNpctfWj0+DDD20oZ6zLmpW0MJOANAaPHhzd1MSptfHwsrlB+GIXT5XwoP3JGZQ75sYjyI+euYgwfErC84iVsBg8aiPmzpvoQk3+zlrZImxo1aoSBAweiYcOGVMD81AV33HGH5mjDT8X5pRijxodZ3lbq48Mv8FhI0BMwanyYBdT8WdMoPwLUGZQfzsGbR36kjQ/nNeUdEvAtgaBQvMT7Xd26dTD1/bG+peWH3KUN0hZpkx6ogOkkfP8dHR2teUcURxvBEowaH2Z4W+lofARLP7EdgSFg1PgITO3tS3U0Pig/7Bn58ozywzldyg/nbHgntAgEheIlXTbqlVew7pcVlna0IQ4DpA3SFkeBAtQRFeOv6QulT506ZXzmAcrR2/FhhreVOY2PAKFlsUFAwNvxYQYEOY0Pyg//9BLlR1bOlB9ZmfBK6BIIGsUrX758GDt2LKZOfBsnjx+xXI9KnaXu0gZpS3aBAjQ7Ot7f0xdKx8TEeJ+ZSXLwdnwE+m2lO+PDJMhZDQsR8HZ8BLqp7owPyg/f9hblR1a+lB9ZmfBK6BIIGsVLurBx48bamqh3R4/E1eQky/Sq1FXqLOu5pA2uBkcCdPv27a4mZ7xsCMhCadmoWfb3Cpbg6fgI9NtKT8dHsPQb2+EfAp6OD//Uznkpno4Pyg/nTL29Q/mRQZDyI4MFj0hACISpfYtSgw3FpzNmYNeefXh9ojUcbowa0h81qlXB44895lVXiNK1c+dOLQ+xNa9Tp45X+YV6YmG5Zs0aDBo0KKhQuDs+vlT7ylVXewSJu+pABKPGRyDqzjKtR8Dd8RHoFho1Pig/jO1Jyo80npQfxj5XzM36BMJSVfCmGXFxcYiKivImC7u0RuX3zoQJ2LV7L14e9xHCI/LYlWGWE3lT+fqwp1GrRjW8MHSoIdUSfgcPHtS8IEqG4hFR3mx6GozqD718q+U3depUlCxZEvIG05Ng1va6Oj7kbaWYicgGrf4OvhofZvx7pbM16/MSavVzdXzoXALx7avxQfnheW9mHr+UH5Qf2T1NmZ+X7OK6co/5uULJeRx/8QsqU0NbnKLI1KtbG8MH9TXlmi+xyR8x+FFtpssopUtvvyMTEm7ErNNx7zsYF0oLAVfHR6Bs8305Ptx7Ahg7FAm4Oj4CxcaX44Pyw7hepfzYrFlLGEfUtZx8OT5cqwFjkYBzArlfU8H57ZzvXL58Gfnz5885oosxjMyvSZMmuHjhAt59azRKlCqN8jff4mItfBtNvE+Ne2Uo+j7SB/fff7/P+JUpUyZ9tks2YpaPBLnuajCyP6RMq+VXsGBB5M6dG1u2bEGDBg1cxZYez8ztzWl8yGxX3OmTaHNvt/T2+OPAX+PDiLaYuX+lfayf572c0/jwPGfvUvprfFB+uN9Pmccb5QflR3ZPUebnJbu4rtxjfq5Qch7HX/yCWvESvOXKldPM7caPGY0zp06gQdPmzqn74Y7ssxLz5RyMGzcO7du398sPI28EqL8eRE/R+6N+1apV0zZVlhcMpUuXdquq/qifWxXKFDm78bHqx4Xa28qSpctmSuW700CMD29aY/b+Zf286V3KD6FH+eH6M+RovFF+UH44e4IcPS/O4rpynfm5Qsl5HH/xC1pTQ1u04q1qyZIlSE26hIG9O+PnpYttb/vlWMqUsqUOUhd3vBcaVUGakHhOsl27dpry5XkO5k3paHz42xOVGcaHeXuINQskAUfjw9/1McP4oPzwvNdDS34sAuWH588KUwY/gfDgb2JaC2WflrfGjMGqVasw6ZPJWL7oa9zbvTdub3WXTxGIWcj3C+YhKfEKhr0wFK1atfJpea5kLgJUPrLuSzdB9NYJhyvlWjmOmBmKa/mFCxd67GjDzO3PPD7y5cmDek3v8HmVzTg+fN5oFmA5ApnHB+UH5Yc7DzHlhzu0XI9L+eE6K8Y0D4GQUbx05KL4yGfx4sWYNXsGvpw5BS3adkDr9h1RrHgJPZpX32djz2ClmuFavWIJ8kREaGu5Onbs6FWevkhMBcw9qrJQeqhy2iJrP2STzGAMMjYKFCiA7777DutW/4RffvoxZMdHMPYv2+QdAcqPDH6UHxksXDmi/Ait31euPBOME5oEQk7x0rtZFCH5rF+/HjGLFuHJXh1RtXpN1KrXCNH1GqJ6dD3lhj5Cj57t99XkZOzeuRU7t27CH1s3Yu/uP9FOrd8aOXwYmjYNzN5H2VY4000K0ExAnJyKstWjRw/ExMSgf//+TmJZ/7LMgt53333arCjHh/X7ky0wngDlRwZTyo8MFtkdUX6E5u+r7J4J3gtNAkG7j5fena765U9JScHq1auxYcMGbNq8Bfv27kGZsuVQvGQpFC0WiQKFCiEiT14t2+SkRFxKSMC5s/GIVV7fjh87iipVq6Fhg/rabEiLFi2QK1cuvQrZfrtav2wzsblpRH66CaJkW6VKFbRp08amBO8OjaifbQ0Ckd/bb78Nsdl3xcthIOpnyyen48z10/t+4MCBdkk5PuxwpJ9k5pd+w8MD5uchuOvJAsWP4yOj3/S/IXKF8iODi35E+RHav6/050C+A/X3yrYO2R2zftnRyfmeM34hO+OVGZkoSq2umyHKPRGkBw4cwLFjxxAfH48EpWglJiZqXgiLKmWsUKGqiIyMRNmyZVGpUiWXFa3M5Zrx3PYN5tq1a7Fv3z6vN2I2Yzs9rZO+UNoVxcvTMgKVTma7ZL1f5sDxkZkIz0kggwDHRwYLyo8MFo6OKD9C+/eVo2eC10KLABUvJ/0tgrRy5craxzaKMw3WNk6wHIsArVixIg4ePEgnHDadGqwLpeVNtQTp95wCx0dOhHg/lAlwfKT9HaH8yDoKKD+gvagO9d9XWZ8MXgkVAq7Zw4UKDbbTIQH5IS6mZzITIjMikydP1jwiOowcIhdlofRXX32FU6dOBU2Lnc12BU0D2RASIAG/E6D8yIqc8iMrE14hgVAhQMUrVHragHZSgGZAtF0onXHVukfuzHZZt5WsOQmQQKAIUH5kkKf8yGDBIxIINQJUvEKtxw1oLwVoGsQuXbpo6/9kfy+rB852Wb0HWX8SsAYByo+0fqL8sMbzylqSgNEEuMbLaKIhlJ8IUPnoXqz0H+9yLVRCMCyU5mxXqDytbCcJmIcA5Qc077jLli1zyUOueXrOviaUH/Y8eEYCORHgjFdOhHg/RwIiQEN1DZgslBbvlgsXLsyRk1kj6AqzWevHepEACQQvAcoPyo/gfbrZMhLISoCKV1YmvOIhgVAVoFZeKL19+3att6XvGEiABEggUAQoP6znqInyI1CjheVamQAVLyv3nknrHmoC1MoLpXfu3Olw3y6TPlqsFgmQQJAToPywTgdTflinr1hT8xCg4mWevgi6mjgSoPobsmBrrBUXStM2P9ieQraHBIKHAOWHufuS8sPc/cPamZdAWGxsbKp5q8eaBRMBUbrkDZmE6Oho1KlTJ5iap7VtzZo1GDRokCXaNXfu3KDsB0vAZyVJgATcIkD54RYun0em/PA5YhYQpATCUlXwpm1xcXGIioryJgu7tMzPDofbJ1bgd/DgQW0jZmmcbMosbzY9DWZr79SpU1GyZEnIDJgEs9VP5yxvK8WpRo8ePTh+dSgefJu1f/WmsH46Cc++yc8zbnoqX/Cj/NDpuv9tVH9QfrjP3lEKo/pDz5v56SQ8+/YXP5oaetY/TOUFAUcmJLrZghfZmiKpVRxt0JOhKR4XVoIESMBNApQfbgLzQXTKDx9AZZYhQ4CKV8h0tfkaGowC1AqONnQl15uZRvM9TawRCZBAKBGg/AhMb1N+BIY7Sw0eAlS8gqcvLduSYBOgZne0wbeVlh0qrDgJkEAmApQfmYD4+JTyw8eAmX3QE6DiFfRdbJ0GBpMAbdeuHZYtW2Y6+HxbabouYYVIgAQMIED5YQDEHLKg/MgBEG+TgAsEqHi5AIlR/EsgGARogwYNEBkZaTrli28r/fssszQSIAH/EqD88B1vLY/leAAAQABJREFUyg/fsWXOoUOAilfo9LXlWmp1ASqONpYsWYJTp06Zgj3fVpqiG1gJEiABPxCg/DAWMuWHsTyZW+gSoOIVun1vmZZbVYCKo40OHTogJibGFKz5ttIU3cBKkAAJ+JEA5YcxsCk/jOHIXEiAihefAcsQcCRAZVNNMwdZ6xUfH4/NmzcHtJp8WxlQ/CycBEggwAQoPzzvAMoPz9kxJQlkJhCe+QLPScDsBESAykeEwdq1a7Fv3z6vN2L2ZZt1Rxuy7itQgW8rA0We5ZIACZiJAOWH+71B+eE+M6YgAWcEOOPljAyvm56ACNCHH35YU7pEMEyePFlTxsxWcd3RxsKFCwNSNb6tDAh2FkoCJGBiApQfrnUO5YdrnBiLBFwlQMXLVVKMZ1oCIkAHDhxoagVMHG189dVXAXG0wbeVpn10WTESIIEAE6D8yL4DKD+y58O7JOAuASpe7hJjfNMSMLMAFUcbPXr08LujDb6tNO3jyoqRAAmYiADlR9bOoPzIyoRXSMBbAlS8vCXI9KYjYFYB2qVLF7872uDbStM9nqwQCZCAiQlQfmR0DuVHBgsekYBRBOhcwyiSzMd0BESAykfe2okA0YWIXAtU8KejDb6tDFQvs1wSIAGrE6D82Kh1YSDlpdWfIdafBBwR4IyXIyq8FlQERHCYZQ2YPx1t6IpmUHUmG0MCJEACfiRA+eFH2CyKBEKAABWvEOhkNjGNgFkEqD8cbXC2i089CZAACRhHgPLDOJbMiQRCmQAVr1Du/RBte6AFqD8cbXC2K0QfbjabBEjApwQoP3yKl5mTQNAToOIV9F3MBjoj4EiAbt++3Vl0Q6/70tEGZ7sM7SrLZvbYY49hyJAhlq0/K04CZiZA+WHm3mHdSMC8BMJiY2NTzVs91owE/EdAlK6dO3dqBUZHR6NOnTo+LVzKWrNmDQYNGmRoOXPnzoU/6m9opZmZoQRE4dJfIshzPHHiREPzZ2YkQAL2BCg/7HnwjARIwDGBsFQVHN9y7WpcXByioqJci+xCLObnAqRsopBfNnBcuCX8Dh48qHlAlOgNGzbUPCO6kNRhlJz6Y+rUqShZsiRkBsyVkFN+ugdHcSbiSsgpP1fysI3D/GxpuH9sBD+Z6RJT0+JXy2gViA0/rj3HM2bMcL9CmVIYUT/bLJmfLQ33j8nPfWa2KXzBj/LDlrB7x77oD/4+da8PbGOzP2xpuH/sjB9NDd1nyRRBTsCRCYluvmd00412tMG1XUb3kLXys1W67v2nL+QjCpg8F3KPgQRIwLcEKD98y5e5k4DVCVDxsnoPsv4+I+APAWqkow1dOZR6M4QegcxKl06AypdOgt8k4D8ClB/+Y82SSMBKBKh4Wam3WNeAEPC1ADXK0QZnuwLyeJiiUGdKl145Kl86CX6TgH8JUH74lzdLIwGzE6DiZfYeYv1MQ8CXArRdu3ZYtmyZx23lbJfH6CyfMCelS28glS+dBL9JwP8EKD/8z5wlkoAZCVDxMmOvsE6mJuALAdqgQQNERkZi4cKFHrWds10eYbN8IleVLr2hVL50EvwmgcAQoPwIDHeWSgJmIUDFyyw9wXpYjoDRAtRTRxuc7bLco2NIhd1VuvRCqXzpJPhNAoEjQPkROPYsmQQCSYCKVyDps+ygIGCUAPXU0QZnu4LiMXKrEZ4qXXohVL50EvwmgcASoPwILH+WTgL+JkDFy9/EWV7QEnAkQPVNbF1ttLuONjjb5SrZ4InnrdKlk6DypZPgNwkEngDlR+D7gDUgAX8QoOLlD8osI6QI2ArQnTt3YvLkydAVJFdAuONog7NdrhANnjhGKV06ESpfOgl+k4A5CFB+mKMfWAsS8BUBKl6+Ist8Q56ACNCHH34YDRs21DawdVUBc9XRhq7MSTkMwU/AaKVLJ0blSyfBbxIwDwHKD/P0BWtCAkYSoOJlJE3mRQIOCNi+wZQZKlcUMFccbXC2ywHsIL2UWenKVzQvBmy7D3eNb+xSi5s+F41GT9dEvmL5EFEwPD2N5PPIT/fghXajUfxqGe0FgZTFQAIkYA4ClB/m6AfWggSMIpAhgY3KkfmQAAk4JCACVD4yUyVKk644ybXMwdbRRv/+/TPfTjdddJQ2S2Re8AmBy5cvQ9bwValSBeXKlfNJGZKprnSNf+1dlE+popVT7JZCKFAiHyq1K4278zVzWPaW6XtxZsdZ7V6jwdUQkT83mg6pgcR/kvDpbYuQv0R+lKpdDFHVC6PKPWXx6J4h6LbgDsyc/ZlW5owZMxzmy4uuEUhNTcWePXsg37feeisiIiLSE8r1lJQUVKtWDbly8f1nOhgeOCVA+eEUDW+QgKUIUPGyVHexssFAwFUBKo423n77bWzevBlifmgbdKXN9hqP/UvgySefxLx58zBkyBC89957PilcV7pkNurubndlKUOUrxrdK2S5LhdObz+rKV6lGpZARIHcOL4hFteSUlD+jpLo98u9SL50VVO6JG6l9qW1jxwXSCmcPvNF5UuIeBauXLmCGjVqaInffPNNvPTSS+kZVa9eXTs+d+4cihQpkn6dBySQEwHKj5wI8T4JmJsAFS9z9w9rF8QEXBGguqMNW8WLa7sC+1DILNeUKVM0pcuXNbFVumQd1ty7lyEsLBfqPX6rpmzF7TqP5SM2O6xCakoqzv31j3av7Vv1te+t0/Zj35IjuP9/dyLxfBK2z/4bpRtF4fbhtXD+yCUULl8AV9Rs2Nlx4Sh+Y4bZIZUvh4jduvjyyy+jZ8+eKFq0qFvpGJkEnBGg/HBGhtdJwNwEqHiZu39YuxAgkJ0AFYVLZrwWLlwImQGTwNmuwD4UdevW1SpQv359bNmyxSeVyax0SSFiNliofEFU71Yeolgd/S0WD8a0dlj+iY3x+KLLclS6qyyK10qbUbnj1bpo/1ETLf7y5zei3cTGuLH0Ddq5KF0S8hXOg+bD6yD1rb74vsgsznxpVIz576mnnsIXX3xhTGbMhQSuE6D84KNAAtYiQONya/UXaxvEBESADhw4MIsXRFtHG/q+YBKXITAEevfujcOHD6NXr14+qYAjpUsKyp03l1K02iIsVxh+G/cn9i4+gkOrTqd/jq2LTa9PwpGL2vHtw2qlX8O1VOQOD0PEDbmRVylYF45dQmJCUvr9y3GJuHjyXyQcv6xdo7fDdDReH5QtWxYrV67EggULvM6LGZCAIwKUH46o8BoJmI8AFS/z9QlrFOIEMgvQb7/9Fs2aNUNMTAxkXzBxT88QOAKff/45ypcv75MKyHoxmdGUNV2i+OhBlK2Hl92tOdSQ2a4NH/2BE7+fwTe9f9Y+6977EyXrFtOi7/3uCJY8s047PrY+DlevpGjH3z+9Hr+M3q5niS3T9yFvgTSHDynJKdi3+Bh2zD2A7bP2pceh8pWOwquDDz/8UEs/bNgwxMfHe5UXE5NAdgQoP7Kjw3skEHgCNDUMfB+wBh4SqF27tocprZWscOHCKFSoEOQ7KSkJobbmZseOHdbqMA9rKzNdMqOZWemS7NqOa4zIWws5zbnhU1W1mazNU/Yr5WozEorF4XzUKcz8ejsqH6qAGq1uxdmIUyh8La+WR3TvSigRneHUIVdELtTtdwtSlPON9e/vtCtHlC/d7FAUwzlz5tjd50nOBLp27Yq77roLy5cvx/Dhw3NOwBg+J0D54XPEpiggVOSHKWCzEi4RCI+Li3MpYnaRjMjDNn/mZ0vD/eNQ4+c+IWulOH/+POSTmJiIhIQEa1XegNqa9Xm+dOmS1rp///0XRtQxOTnZKa1NU3aj8r1lkDu3MhUsEI6Wo+qhgVK2bMOpU6dwMHI7LgzYi7/270dEeARyn8+LTYdPYMNnvyp3hcD6o0DMgDkonq8UbqlTAYUKF8K1g7lxeull9J7eAUVLOVfu9LKMaKuel3wHa37i1VAP0sZRo0Zpitenn36qX9Zmv65evZp+7slBsPJzxsLo9jorJ1iuU354/xvX9lkw+vljfrZ03T+2Ir/wqKgo91tqk0Ia7W0eNtlpQpj52RJx7zjU+kPoRDykflSGQDh3vY0ZuwEFd6OTP2+uNdCsfw8KFEhzSHHDDTcY8jdQZpL69OmjzXrJDJOtqeG5vxIwucY36L+xi6Z4xe1JwPmjl3FN/WjfsHUddh/4E1u2pTn6qFOjLh7q1gcF9pTCpo93oe3YxijRLj++GPgDcpW7iqKN8uHMyTP4ff0mXLh8Pu0hKglseGkJihUrhpTaeZDnSn5EXMmHfJcLYn3uZYi9dlwzcR0/frwhbdWf3GD+eyUKuR7kGW7evDnEwcb//d//6ZcRGRnplTv5YOaXDsnmwOj2StaUHzaAg+jQ7PJDUBv9PDM/7x5gf/GjqaF3/cTUJEACJGAYgYkTJ0LWAck6r8zKl20h61ZswA87vsPZkseQkvsayhW/Gffddx/OfgZc/PgqdkPUdF1VB2RD7hLJ5VGqUDHc2aeelpV4PoysXRB/7TiIv3ceRGLBS7h44QI2/rUD8TcdxbXwtBm44igC+VSuXBlz585FmTJlUKJECS3PUqVKaWawtnXjsXMCzz//PGSN4AXFmYEESIAESCD0CFDxCr0+Z4tJgAQMIBAWFqblon8bkKWWhazh0z0b2ipfiQUuIWbZQuw/okwJ6+5Hrmu5UeKfCih17WY89V5vzfHG3GnLcBFnnValQsubtHvx+xPw2zs70X1+K5QtWQ43nC2E8q1ugvLhgXOvzNfi/FB8Di7cEI+qVauiY8eO2tvZM2fOYNu2bbA1jytYsKCmlJUsWVJTwuRbFDL55MmTx2ldQvGGbJb8wQcfaP0r7Tf62QlFpmwzCZAACViJABUvK/UW60oCJGAaAkOHDkW/fv0MNb3TG6crX7KH28+VvkSFgrfgH+Us48+fgAb1G6D8ntqIPFkO3WbfiYpt0pQp8XYYtztt02Q9n8zfxzbEIqpaYcy960eUblhCu124XAHIB0rpEucaEkThi01V5oU1Gto5c9FNMU6fPg1ZU3by5EmcPXtWU8qkrnLfNoiJXaVKlTRGYsYoypjMvolyFuxBTFBTU1OzNPPRRx+FfBhIgARIgARCjwAVr9Drc7aYBEjA5AR27dqFli1bQhxuyI/3UxcPo+KhaLRs3RIVSpTD8hO/ay1YO36Hth/X1cQU/PHl30i5mqY42Tbv72XHULBkPrVH1yVsnhKHrZ/uwTWlYJ07mICdnx9U6Q7i5KYzyqthFbWhcv40pSs8bU2XMw+aojjJp06dOrZFaV43RRmTjyhn4gxGvlevXo2LF9P2FpME4eHhqFKlCvLnz0/TRTuCPCEBEiABEghmAlS8grl32TYSIAHLEBAFZcWKFTh48CD27NmDvHnzom3btvj555+x78AOnLt6EaWmV8E+nExv05mdZ7FipHPTQol4cOUJ7aMnuqY2UpZw8eRlLH9hg34Z22buc0npSk/g4EBMCytUqKB9Mt8WJUwUMpkpE5NFmR2j6WJmSjwnARIgARIIZgJUvIK5d9k2EiABUxO4du0afvvtN23d1IYNaUpQkyZNMGDAANx2223KfXxu9O3b1+GaL6MbppkX5jDT5U2ZshedfGTNmB5ouqiT4DcJkAAJkEAoEKDiFQq9zDaSAAmYioCYEm7cuFEzwZP92apVq4bu3btr33KcOehrvnLydpg5navnvla6cqoHTRdzIsT7JEACJEACwUCAilcw9CLbQAIkYHoCYkq4bt06/PHHH+mmhC1atECjRo1Qo0YNrf6ZnVPYNspXyleglS7bNmY+puliZiI8JwESIAESsDIBKl5W7j3WnQRIwNQEXDEldKcBRitfZla6cuJC08WcCPE+CZAACZCA2QhQ8TJbj7A+JEAClifgzJSwWbNmXrtSN0r5srLSldMDQtPFnAjxPgmQAAmQQCAIUPEKBHWWSQIkEHQEXDElNKrR3ipfwax0ZceYpovZ0eE9EiABEiABXxOg4uVrwsyfBEggaAmIKeGaNWuy9Uroq8Z7qnyFqtKVUz/QdDEnQrxPAiRAAiTgLQEqXt4SZHoSIIGQI+BLU0J3YLqrfFHpcoduRlyaLmaw4BEJkAAJkIDnBKh4ec6OKUmABEKIgCNTQvFIKJ4Jda+EgcDhqvJFpcv43qHpovFMmSMJkAAJBDMBKl7B3LtsGwmQgFcEcvJKeO7cOURFRXlVhhGJc1K+qHQZQdm9PGi66B4vxiYBEiCBUCBAxSsUepltJAEScIuAWUwJ3am0M+WLSpc7FP0Tl6aL/uHMUkiABEjAbASoeJmtR1gfEiCBgBBwZEqYeYPjgFTMjUIzK1+SNDb8OBo2bAi5x2BuAjRdNHf/sHYkQAIk4C0BKl7eEmR6EiAByxLIyZQwd+7clmubrfIllafSZbkudFhhmi46xMKLJEACJGApAmGxsbGplqoxK0sC1wm0bt1aO4p46FfLM5Hf90+3yYdcYcAHy68gJcW9JuWJCMN/2+VDxaJhGBlzBWcT3MzAveL8Ejv58+ZaOStXrjS8vP3792P79u3YuHEjEhMTccstt6BKlSpo0KCBKdZsGdHgIUOGaNlMnDjRiOyYhwUJJCUlQcl4nDlzRvu+ePEi4uLicOjQIVy+fDm9ReHh4ahYsSIKFy6MYsWKITIyEsWLF0eJEiVQsGDB9HjBdBBM8qNB5XA80TQPTiak4vWYf13qpgL5w5BXyY3swpXEVFy+Ys2fiL6UH9kx4z0SyIlAuLcLw+WPuLd52FaS+dnScP841Pi5T8h8KfLmCcOCJwqi9I1pQrD1LRHoPv0iEpMcC7xSkbnQvX6eLA3pViMCuXMB03vnx89/X81yf8GWJJyMt55CZtTfFzElXLFiBQ4ePIg9e/Ygb968mkdC8UzoqVdCM4+3OXPmaD+yjeInD5SZ28v6ZRny2oXSpUs7vJGQkICTJ0/i1KlTmmImfSsK2rZt23D1asbfD1G8KleuDFmXJrNu8l2qVCntI6aR2QWzPy/Z1d2M98qWyIWhrfNlqVrpG3PhlmLqj38ZoJhSqByF91cl4tCpa+m35j5SEOULO46rRzpxIRWdPrmgn1rym3//PO82s49fq9aPpoaeP5NMSQJeEyhcMAzfPF4QRfKF4dA/KRBVq2KRXFgysCC6fXoR5y9mVb7qlAtHPweKl16ZCoVzObx/QCld38cn6dFC4jsYTQlDouPYSJ8ToOmizxEbXsCtJcJxR4Xsf7Y5u78w6qqd4hV2XefaE5eC2Ev2L+RKFMiFqlFKkWMgARIwnED2I9jw4pghCZCATqBOpXB80i0/8ikzw8PnU9BTzXJJmK9mv25Wytfi/jdi4DeX8MehjLeUelr5PqtMQL7anqxdEiH6ZOM8OGdzzTauHG8+lPEWO/O9YDt35pWwWrVqkA8DCZCAcwL0uuicTSDvbPgrGf3mZ8iD6d0LIFzpRx/+logtx9L+vvdWL+XaVY7AP0oWPBeTYU6652hGOts2jFv5L3YctL9Xo0JuzOlVwDYaj0mABAwiQMXLIJDMhgRcJRChRt1bXfOjtVK8JBxVdvk9p13EteuyTxSwBU/eqJmBzHqgAJYqYTvqu39x1V42avb8Jy6kILdSuiqrt5PyAvNGZbZ4+qL920spY3/sNZw6m/W63AuW4IpXQjFNYCABEvCMAL0uesbNqFSy3qpUodxoWC7N6c8lZY5eWFlLdI/OgzLK0kFC8woR2vd5tT6rU800U9Atx65hZyblSouk/gtTb+302S/9mqw1ZiABEvANASpevuHKXEnAIYF6t4TjY6V0ySyXhFUHr+JFpVSJQaGtA71eMy5iXLcbNLOS9urt5R3/iXA4+/Va23yawqVlpv6LULJ3lHLSkTlsOn4VAw5nvP3MfN+q5zQltGrPsd7BRoCmi/7p0cca5cGtap2vbZD1wffXTFO49Otici4fCVWK58aP2xybmc/okV9Pwm8SIAE/EKDi5QfILIIEdAIViuXWlK5ENXu14ehVtKoYjt+G3KjfzvI9UznEeLBOHuRXMjWqoGhr1+wUrZmbk3CLEsItbk4byl/9kYxSSghfU5NbJ23Wh206kmm6LEtJ1rrgzJSwWbNm2uJ/a7WGtSWB4CZA00Xj+/eLncn4W63PGtI8L25Q8uHdXxORR+lZz96WF+fVzJiYH1YtkRs9a9krZHpNTl+4huIFsv8JeEo512AgARIwlkD2o87YspgbCYQ8ge82JqJyZBg+WpmILsoWXxSmFCXbEpRZiG0Q8xGx9vj1wFVMX52IR+/Ii1V/pL2xLKYccki4lJyCj1dcwTzlnEPC78rGf8KP/2LD0EK4ovSs2yckaNeD5T9XTAmDpa1sBwmEAgGaLnrey+sPJWPknTdoL+VEeuw6eQ03Xjd2EPkhL+w++u1KFsXrturhKKg0tK93XtU+eg22HL6KIgXCUCnqujnG9RvtVD7nLqdg4/7QWSOsM+E3CfiCABUvX1BlniSQDYEJP16xu7v5xFU8NdfeDHDBgIKad0OJ+K9Syj5RCpYeSijhKCFOzWjVrpg73fvUSfV28olWaZJXtmd5rGVePQkWbktGvHLgYbUg6w/WrFmjubjesGGDVv0mTZpgwIABuO2225R5pv2PBKu1j/UlARJwTICmi4656Fff75RmIihK17PKicZ29ZJOwoDky5iszNkrK0uIiR2zmhFOuDc/8jr4szn19yTUK5MLjcpk/VkoFhq3BdmLPA0W/yOBABDIOsICUAkWSQIkYE8gr3jMcBKiriteZy6l4qqNLtWleoZJieznNbhphuL1d9w1/GIxxUv2D5JNXadMmaJ5IuzevTtoSujkoeBlEgghAkaYLlaqVAlHjhyxLLWLyrFGQeVMScLYu28A7s7alOPqZVy5Qo5liaz7lXBrZG7NQYdt6iPnU3HmojJrV0kblObPRFs2PCYBbwlwRHlLkOlJwCACZYrnwhd9CirTwwyBevKcjWZ1vZzI6xtknlTeEHertVuztyZB90Il+pqYmIj54rztGYup95zImo9B1fZZNqJ4yYxXr1690LFjR5+Vw4xJgASCg4A7poszZ85UnmSvwao/goYu/hc1S+XGM83yooBSwHRjdV3NkjVefyjzw6n3Z531kt4ecN3K4oUON6BXdMZLO7k3SaVdsSNJU7w2DSsklxhIgAQMIpDm8sagzJgNCZCA5wSOx6ZoJiD6W8y9auF0rbLh+L+H8+OW0hm2IZWUgw4JtW7KhRc73oCCecOQXwle+YgA1oN+Tb6fUAuwxaOilcKpU6dw6dIlbN++HalKGWUgARIgAU8JiOli1apV0bJlS/To0QNHjx619N8VcSV/7nLa38WVysyw4bgE7bP6+n6NccoigoEESMB8BKz1S8x8/FgjEvCaQIaqBDR+JwGyz1cuNYWVqATrhJ75NZv7Vrem4O8T11BAzXZF3pCWoozaz6V+acfvTmQGrFsN+7eYicmp2Pq3tRZIi0ON3bt3Y/78+XjggQe8Zs0MSIAESCDYCIh33LXKqZIER+u3HLW38HUnTQXsxYQWtZByziH3M+/v5SgfXiMBEnCPABUv93gxNgkYRiDxatobyeibwtFHzUhdsdGJwpXiVEltiiwCVcLvR5K17w610zbEPK0ca4z96V9El8mYCZMI4UrjGtkqr7b26+1VGQ455N6WIzYFyAULhIsXL6JTp05YtGgRqlevjtq1a1ug1qwiCZAACfieQLzyNiiOLyToL/CS1Lm8eBNLh+jrlhLKojJLWDnY+TYmL92ZF/JhIAESMJ4AFS/jmTJHEnCJwE+7krXNjuUN5XO3Oxdysoj6j0NpklMXrr8ocxKZAZOPbQhXeWmKl9LpvtuYscbLNo7Vjnv27Im//vpLU76io6O1dV9WawPrSwIkQAJGE/h111XctivrtiHVyuXG570LpBf3m3IVnzkc+idt3W9xZUVha6Iu8c6qfcAS1EdmvPRNmDOn5zkJkIBnBKh4ecaNqUjAawIXlX1+h6kX0VXt53WDg5EobzKPKuG4bEeyWouQVtz89Yma44zf1R4ujoI41TihPFkdS7BXyBzFtco1cbAhs17jx4+nyaFVOo31JAES8AmBH/cl46xSrGKVcyVnYc/Ra1h/9CryhefCBmXpMHtthvXDZCVDiivPuO8tTbtWo0JudFAecX/5Kxl7Y3PjL7W2+HP10u5kfJpiNqR9Pm1DZmdl8ToJkIB7BBz83HMvA8YmARLwnMBp5bXw/37KEIqu5LRgQ6LTaClKVnb65ILT+1a9ISaGNDm0au+x3iRAAkYRmLk6ETNdyGzwPPu9IfUkc361lx+7Dl+DfCSIwrbqDz1m2vfE6wqa/VWekQAJeErA8cp8T3NjOhIgARLwEQExOZR1XrLei14OfQSZ2ZIACZAACZAACfiMABUvn6FlxiRAAkYS0E0OdS+HRubNvEiABEiABEiABEjA1wSoePmaMPMnARIwjICtyeGOHTsMy5cZkQAJkAAJkAAJkICvCYTFxsY6X6Hp69KZPwl4QaB169Za6oiHfvUiFyY1K4Hkz5trVVu5cqVdFcXMcNKkSdq1wYMH08uhHR2ekAAJuEKA8sMVStaN40x+WLdFrHmwEAiPioryqi1xcXHwNg/bCjA/WxruH4caP/cJMYXVCDj6+9KtWzfNy6EoZe5srBxq44Pt9e5pJ7/g5udd65jaCgQcyQ9P682/B56SS0tHfmkcaGro3XPE1CRAAgEgQJPDAEBnkSRAAiRAAiRAAl4RoOLlFT4mJgESCBQBejkMFHmWSwIkQAIkQAIk4AkBKl6eUGMaEiCBgBOgl8OAdwErQAIkQAIkQAIk4AYBKl5uwGJUEiABcxGgyaG5+oO1IQESIAESIAEScE6AipdzNrxDAiRgAQI0ObRAJ7GKJEACJEACJEACoOLFh4AESMDSBGhyaOnuY+VJgARIgARIIGQIUPEKma5mQ0kgeAnQ5DB4+5YtIwESIAESIIFgIUDFK1h6ku0ggRAnQJPDEH8A2HwSIAESIAESMDkBKl4m7yBWjwRIwDUCNDl0jRNjkQAJkAAJkAAJBIYAFa/AcGepJEACPiBAk0MfQGWWJEACJEACJEAChhCg4mUIRmZCAiRgFgI0OTRLT7AeJEACJEACJEACtgSoeNnS4DEJkIDlCdDk0PJdyAaQAAmQAAmQQFASoOIVlN3KRpFAaBOgyWFo9z9bTwIkQAIkQAJmJEDFy4y9wjqRAAl4TYAmh14jZAYkQAIkQAIkQAIGEqDiZSBMZkUCJGAeAjQ5NE9fsCYkQAIkQAIkQAIAFS8+BSRAAkFLgCaHQdu1bBgJkAAJkAAJWI4AFS/LdRkrTAIk4A4Bmhy6Q4txSYAESIAESIAEfEUg3FcZM18S8BeB5M+b+6solmNBArrJ4fjx4/H999+jX79+FmwFq0wCJOALAqEiP0qWLInTp0/7AiHzJAEScINAWGxsbKob8RmVBExDoHXr1qapCyviOwIrV640JPPFixdjxYoVGDBgAKpXr25InsyEBEjAmgRCSX6UKlUKxYsXx8mTJ6F+81mzwzystVHyw8PimYwEshAIS1Uhy1U3LsTFxSEqKsqNFNlHZX7Z88npLvnlRCj7++SXPZ+c7pqZn/ypGz16NCIiIvDiiy9CZsK8DWZur7SN9fOuh8mP/NwhYMbnZfbs2Vi2bBl69OiB22+/nb/X3OnQTHHN2L+2VWT9bGm4f+wvflzj5X7fMAUJkIAFCYii1aZNG+zevRvz58+3YAtYZRIgARJwjUBSUhImTZqkKV19+vRBly5dXEvIWCRAAj4lQMXLp3iZOQmQgJkIiIlhp06dsGjRIuzYscNMVWNdSIAESMAQAufPn8eHH36IdevWaabV7du3NyRfZkICJOA9ASpe3jNkDiRAAhYiQC+HFuosVpUESMAtArKOS2a6tm/fjueeew533HGHW+kZmQRIwLcEqHj5li9zJwESMBkB3cshTQ5N1jGsDgmQgFcEDh48iLFjx+Lw4cMYOXIkGjZs6FV+TEwCJGA8ASpexjNljiRAAiYnwI2VTd5BrB4JkIBbBHbt2qUpXZJoxIgRqFGjhlvpGZkESMA/BKh4+YczSyEBEjAZAZocmqxDWB0SIAGPCGzatAlvv/02KlSooCldFStW9CgfJiIBEvA9ASpevmfMEkiABExIwF2TQ3FHL+aJ8mY5OTnZrkV79uzRrqekpNhd5wkJkAAJ+JLAmjVr8P7776NOnToYPHgwZM8uBhIgAfMSoOJl3r5hzUiABHxMwB2TwytXrmjmOzVr1sT48ePtaibeEuV6QkKC3XWekAAJkICvCCxduhRTpkxBs2bN8Oyzz6Jw4cK+Kor5kgAJGESAipdBIJkNCZCANQl4YnL48ssvY//+/dZsMGtNAiRgeQILFy7EnDlz0K5dO22mK0+ePJZvExtAAqFAgIpXKPQy20gCJOCUgLsmh3pGTz31FMT8kIEESIAE/ElANoD/6quv0KFDBzzyyCP+LJplkQAJeEmAipeXAJmcBEjA+gRsTQ537tyZY4PKli2LlStXYsGCBTnGZQQSIAESMIrAvHnzEBMTg86dO6N3795GZct8SIAE/ETg/9k7E7ioqreP/9zQNMXdSA0x931fct8gUUErUikxLTXFDEsR2rUFtHpd+pOpqSmFhZWBioFrWqKGe4FbEm6YoIa7uL3nuXSHGRiG2efemef4Gecu5557nu+5hzPPPc95Hla87ASab8MEmICyCcgmh/SjpriZrAULFkjChIaG4uLFi8oWjGvHBJiAUxBYuXIlEhISEBAQAPp7xYkJMAH1EWDFS31txjVmAkzABgRMMTkcNmwYBgwYgGvXrmHGjBk2qA0XyQSYABPII5Cbm4uoqCgkJSVh1KhR8Pf3ZzRMgAmolAArXiptOK42E2AC1idgisnh3LlzpQosXbrU+hXhEpkAE2ACgkBOTg5ohj05ORkTJkyAj48Pc2ECTEDFBFjxUnHjcdWZABOwPgFjTQ7JfTw52ODEBJgAE7AFgQsXLkgzXQcPHkRISAh69Ohhi9twmUyACdiRACtedoTNt2ICTED5BEwxOXz99ddRsWJF5QvFNWQCTEBVBNLT07Fw4UJkZGQgPDwcHTp0UFX9ubJMgAnoJ8CKl34ufJQJMAEXJmCsyWHlypUxf/58DSlS2jgxASbABCwhkJqaisjISKmIsLAwKXC7JeXxtUyACSiHACteymkLrgkTYAIKIlDQ5PChhx6SvB0W9Hg4ZswYzXF3d3cFScBVYQJMQG0EUlJSEBERAU9PT0ycOBFeXl5qE4HrywSYgAECJbKysjgCqAFAfIoJMAHXJZCWloZFixahf//+GDx4sOuCYMmZABOwOYE9e/aA4nQ1a9YMI0eOZDNmmxPnGzAB+xMoXb16dYvump2dDUvL0K4Al6dNw/Rt5mc6M+0rmJ82DdO3nY0fLWY/d+4c1q5di/bt26Nly5Y6UJxNXh3h9OywvHqgmHCI+ZkAS09WZ+aXmJgoKV1du3bFuHHj4ObmBmeWV0/zsrz6oJhwjJ8XE2DpyWovfmxqqAc+H2ICTIAJyAQKmhzKx/mbCTABJmANAnFxcYiOjoa3tzeCg4Mlpcsa5XIZTIAJKI8AK17KaxOuERNgAgoiYIqXQwVVm6vCBJiACgjExsZi9erV8PX1RVBQkApqzFVkAkzAEgKseFlCj69lAkzAJQgY6+XQJWCwkEyACViFAK3nio+Ph5+fHwIDA61SJhfCBJiAsgmw4qXs9uHaMQEmoBACbHKokIbgajABJyCwcuVKJCQkICAgAPS3hRMTYAKuQYAVL9doZ5aSCTABCwmwyaGFAPlyJsAEkJubi6ioKCQlJWHUqFHw9/dnKkyACbgQgdIuJCuLygSYABOwiIC2ySG5fPbw8LCoPL6YCTAB1yGQk5ODJUuW4MCBA5gwYQLIayonJsAEXIsAz3i5VnuztEyACVhIgE0OLQTIlzMBFySQmZkpzXQdPHgQISEhrHS54DPAIjMBIsCKFz8HTIAJMAETCGibHK5fv96EKzkrE2ACrkggPT0dkZGRyMjIQHh4ODp06OCKGFhmJsAEBAFWvPgxYAJMgAmYSEA2Ody0aRMOHz5s4tWcnQkwAVchkJqaKildJG9YWBjIRJkTE2ACrkuAFS/XbXuWnAkwAQsIkMlhgwYNJHfQDx48sKAkvpQJMAFnJJCSkoKIiAh4enpKSpeXl5cziskyMQEmYAIBVrxMgMVZmQATYAIyATI57NevH9LS0kBBUDkxASbABGQCO3bswLx589C6dWsEBwezIx4ZDH8zARcnwIqXiz8ALD4TYALmE2jatCmGDBmCtWvXssmh+Rj5SibgVAQSExOxaNEidO3aFVOmTIG7u7tTycfCMAEmYD4BVrzMZ8dXMgEmwASk4KekgMXHx4NNDvmBYAKuTSAuLg7R0dHw9vaWZrrc3NxcGwhLzwSYgA4BVrx0cPAOE2ACTMA0AtpeDtnk0DR2nJsJOBMB8nK6evVq+Pr6IigoyJlEY1mYABOwEgFWvKwEkothAkzAdQnIXg7Z5NB1nwGW3LUJxMTEYOPGjfDz80NgYKBrw2DpmQATKJIAK15FouETTIAJMAHjCXBgZeNZcU4m4EwEVq5ciYSEBGmmi/4OcGICTIAJFEWAFa+iyPBxJsAEmIAJBNjk0ARYnJUJOAGB3NxcREVFISkpCaNGjZLWdTmBWCwCE2ACNiTAipcN4XLRTIAJuBYBNjl0rfZmaV2XQE5ODhYsWIDk5GRMmDABPj4+rguDJWcCTMBoAiWysrI48qfRuDgjE2ACTMAwAfJsSG/BKVH8HpoJ48QEmIDzELhw4YLkROPEiRMYM2YM6IULJybABJiAMQRKiB8JFile2dnZqF69ujH3MioPl2cUpiIzMb8i0Rh1gvkZhanITMwvD82hQ4cwZ84cKcbX8OHDi+RV8ATzK0jEtH3mZxqvgrmZX0EihffT09OlwMi3bt3Cq6++imbNmmkyMT8NCrM2mJ9Z2DQXMT8NCrM27MWPTQ3Nah6+iAkwASZQNAE2OSyaDZ9hAmolkJqaisjISKn6YWFhOkqXWmXiejMBJmBfAqx42Zc3340JMAEXIcBeDl2koVlMlyCQkpKCiIgIeHp6gpQuLy8vl5CbhWQCTMC6BFjxsi5PLo0JMAEmIBFgL4f8IDAB5yCwY8cOybywdevW0rpNDw8P5xCMpWACTMDuBFjxsjtyviETYAKuQoBNDl2lpVlOZyWQmJiIRYsWoWvXrpgyZQrc3d2dVVSWiwkwATsQYMXLDpD5FkyACbguATY5dN22Z8nVTSAuLg7R0dFSfC7yUOrm5qZugbj2TIAJOJwAK14ObwKuABNgAs5MgE0Onbl1WTZnJRAbGyu5jPf19UVQUJCzislyMQEmYGcCrHjZGTjfjgkwAdcjwCaHrtfmLLF6CcTExCA+Ph5+fn4IDAxUryBccybABBRHgBUvxTUJV4gJMAFnJMAmh87YqiyTsxFYuXIlEhISEBAQAOqznJgAE2AC1iTAipc1aXJZTIAJMIEiCLDJYRFg+DATUACB3NxcREVFISkpCaNGjYK/v78CasVVYAJMwNkIsOLlbC3K8jABJqBYAmxyqNim4Yq5MIGcnBwsWLAAycnJmDBhAnx8fFyYBovOBJiALQmw4mVLulw2E2ACTKAAATY5LACEd5mAAwlkZmZKM10HDx5ESEgIevTo4cDa8K2ZABNwdgKseDl7C7N8TIAJKIoAmxwqqjm4Mi5M4PTp04iMjERGRgbCw8PRoUMHF6bBojMBJmAPAqx42YMy34MJMAEmoEWATQ61YPAmE3AAgdTUVCxcuFC6c1hYGJo1a+aAWvAtmQATcDUCrHi5WouzvEyACSiCAJscKqIZuBIuSCAlJQURERGoXbs2SOny8vJyQQosMhNgAo4gwIqXI6jzPZkAE3B5Amxy6PKPAANwAIEdO3Zg3rx5aN26tRQY2cPDwwG14FsyASbgqgRY8XLVlme5mQATcDgBNjl0eBNwBVyIQGJiIhYtWoSuXbtiypQpqFixogtJz6IyASagBAKseCmhFbgOTIAJuCwBNjl02aZnwe1IIC4uDtHR0fD29kZwcDDc3NzseHe+FRNgAkwgjwArXvwkMAEmwAQcSEDb5HD9+vUOrAnfmgk4J4HY2FisXr0avr6+knmhc0rJUjEBJqAGAiWysrIeqKGiXEcmwASYgDMTWLduHTZt2oSXX34ZTZo0cWZRWTYmYDcCNNO1detWDBgwAIMGDbLbfflGTIAJMAF9BEo8EEnfCWOPZWdno3r16sZmLzYfl1csIoMZmJ9BPMWeZH7FIjKYgfkZxGPwJP0pnjlzJsqUKYM33ngDNBNmaeL2sIwg81M3v5UrVyIpKQkBAQHw9/cvJAy3byEkJh1gfibhKpSZ+RVCYtIBtfJjU0OTmpkzMwEmwARsQ4AUrX79+iEtLQ1kGsWJCTAB8wjk5uYiKipKUrpGjRqlV+kyr2S+igkwASZgGQFWvCzjx1czASbABKxGoGnTphgyZAjWrl2Lw4cPW61cLogJuAqBnJwcLFiwAMnJyZgwYQJ8fHxcRXSWkwkwARUQYMVLBY3EVWQCTMB1CLCXQ9dpa5bUugQyMzOlma6DBw8iJCQEPXr0sO4NuDQmwASYgIUEWPGyECBfzgSYABOwJgFtL4dscmhNslyWMxNIT09HZGQkMjIyEB4ejg4dOjizuCwbE2ACKiXAipdKG46rzQSYgPMS4MDKztu2LJn1CaSmpkpKF5UcFhaGZs2aWf8mXCITYAJMwAoEWPGyAkQuggkwASZgbQJscmhtolyeMxJISUlBREQEPD09JaXLy8vLGcVkmZgAE3ASAqx4OUlDshhMgAk4FwE2OXSu9mRprE9gx44dmDdvHlq3bo3g4GB4eHhY/yZcIhNgAkzAigRKW7EsLooJMAEmwASsSEDb5JA8HtK+sWns2LG4c+cOoqOjjb2E8zEB1RBITEyUnu2uXbti3LhxcHNzU03duaJMgAm4LgGe8XLdtmfJmQATUAEB2eSQXMwbG++elC4ywSLvbrTNiQk4E4G4uDhJ6fL29pZmuljpcqbWZVmYgHMTYMXLuduXpWMCTEDlBEw1OZSVrhp3a4M+pICx8qXyh4CrryFAnj5Xr14NX19fBAUFaY7zBhNgAkxADQRY8VJDK3EdmQATcGkC2iaHhw4dKpKFttI16N/RoA8rX0Xi4hMqI0AzXfHx8fDz80NgYKDKas/VZQJMgAkArHjxU8AEmAATUAEBbZNDfdUtqHTJeVj5kknwt5oJrFy5Elu3bkVAQACoL3BiAkyACaiRACteamw1rjMTYAIuR0Db5PC7777Tkb8opUvOxMqXTIK/1UYgNzcXUVFRSEpKwlNPPQV/f3+1icD1ZQJMgAloCLDipUHBG0yACTABZRPQZ3JYnNIlS8TKl0yCv9VCICcnBwsWLEBycjImTJiAnj17qqXqXE8mwASYgF4CrHjpxcIHmQATYALKJKBtcmis0iVLwsqXTIK/lU4gMzNTmukiz5whISHo0aOH0qvM9WMCTIAJFEuAFa9iEXEGJsAEmIByCGibHJ45c0ZynkEKlbGJlS9jSXE+RxFIT09HZGQkMjIyEB4ejg4dOjiqKnxfJsAEmIBVCbDiZVWcXBgTYAJMwPYE5s2bhwsXLqBmzZroXnqgyTdk5ctkZHyBnQikpqZKShfdLiwsDM2aNbPTnfk2TIAJMAHbE2DFy/aM+Q5MgAkwAasRkM0L750phYdzquIfzxNmlc3Kl1nY+CIbEqCYcxEREfD09JSULi8vLxvejYtmAkyACdifQImsrKwH9r8t35EJMAEmwARMJTB16lTQmheKzUWKU071C/ir1R7UOv04ah9vampxUv71lVcgq/RZtG7dGnPnzjWrDL6ICVhKYM+ePYiJiZFmuEaOHImKFStaWiRfzwSYABNQHIESD0SypFbZ2dmoXr26JUXoXMvl6eAweYf5mYxM5wLmp4PD5B3mZzIynQsM8ZNnumSlS77wbMM0/FP3Lzx+qBPcs2vKh036lpUvWkuzbNmyIq81VL8iLzJwgsszAMeIU87CLzExEdHR0ejatSvGjRsHNzc3vdI7i7x6hdNzkOXVA8WEQ8zPBFh6sjI/PVBMOFQUv9ImlMFZmQATYAJMwAEESOmima647+Nx7fcH2Dh9t6YWj2U0R/kngJuVzsP9p+IVryr1K6JGkyqa62mjEd5GykNbkXX/HOhehpQvnQt5hwlYSCAuLg6rV6+Gt7c3goKCLCyNL2cCTIAJKJsAK17Kbh+uHRNgAi5OQJ7pmvfhAng1qkdaEhr71dFQOZ5wFrmNGuLTTz9Fy4+aYvjTI6Rzv39+FOXcy6Dtiw01eWkj59R1VHm8sBnXYDyB+/fvo02bNqx86RDjHVsRiI2NRXx8PHx9fREYGGir23C5TIAJMAHFEGDnGoppCq4IE2ACTECXgKx0dfTshr5Deksn7966D7eKZXDv3gPcyM5FswBPtG3bFj79fJC4KRGHUg/h6vmbuH7hFq6cuYGrmTdRskxJlChVQtq+e/OeVE7yp6m4/NdVaXtz+D4pfwmUkNaPkZMDujcnJmArArSei5QuPz8/VrpsBZnLZQJMQHEEWPFSXJNwhZgAE2ACkBQfUoBoTVf/EgG4IxQmmt3aOecPQKzMzTp8GWUrl0aJkiVwZmcWqqU0QqMGjbAm9idsn3kAR9akY/+yo1jaZS3uCyXt1uVcafv8gUsSXq++HqhQo5y03WhwHZStlLeuhr0d8tNnawIrV65EQkICAgICQAHBOTEBJsAEXIUAK16u0tIsJxNgAqohIM90yY407t2+izIPlUJD39ro+U4riIkpPNajFh6qUlaSqc4TNeAb1RlD/Icg45903Bh4GlUbuhuUt8zDpVDSrZSUp5y7G0pqjQasfBlExyfNJJCbm4uoqCgkJSVh1KhR8Pf3N7MkvowJMAEmoE4CWkOtOgXgWjMBJsAEnIlAQaVLW7asP//F+f2Xi/x4oB56d+qLDRs2IKvsWTzuUwevnRuBksLM8KFqZaXtSnUrSEUmhuwR5VyUtn8M2o6c09e1byW5qyfFj80OdbDwjpkEcnJysGDBAiQnJ2PChAnw8fExsyS+jAkwASagXgLsXEO9bcc1ZwJMwMkIFIzTJYt38/JtXP/nFq6dvwWvfo/kHS4YCETMglEacMUXZ7JO4cSRQ/C47Ikrp2+gUt3yknkirfm6dytvjVfg+v55F4j/J+zzk7Yf3NctlGa+yNW8rHzNmTNHcw1vMAFjCWRmZmL58uVIS0tDSEgIKGwBJybABJiAKxJgxcsVW51lZgJMQHEEaKZLOziydgWvnrmORW1/gmdPD0nxIscZ/+zPW6sl56verLKkYO378jgeHKyKnFYn8Ps/23Gu8wWEnB6O2//m4svO8WgwsC5Kl88zMfRoVx1lKpTCuT0XcVeYM96+dlcuTvOtrXyRYkjxljgxAWMJpKenY968ebh16xbCw8OlAMnGXsv5mAATYALORoAVL2drUZaHCTABpydQoWY51OvvUUhOcqKRe+0OKlyp/N853RmsCo+Uxy2hgKWtOSWdr1TnYVT2qiCcdpzBrSu5wH2xfEyYJT4Q5XBiApYSOH78OL766iuUK1cOYWFh8PLysrRIvp4JMAEmoGoCrHipuvm48kyACTgLAQpaTA4HaNaLzPtopqmodFMoT5eP57mCL5in3fjGSPnwV+lwlX9q42GP8ighzBBpjReZFF48fgXVGlbSuazXe601+xk7MnEt84Zmn+qSVfqsZB7GpoYaLLxRDAEyT/3888/RtGlTjBkzBh4ehV8UFFMEn2YCTIAJOB0BVrycrklZICbABNRKYO7cuQgNDZXWVBlSvspVKoMawrSwYCojTAjv37mP7GWnUO3cY3gm4kk0eeqxvGxiEuvyyavYPS9No3i1CPQCzZ7tX3oCuVfvSPluifVkctJWukgxzM7Olk/xNxMoksCOHTuwaNEiyawwODgY7u6GPWwWWRCfYAJMgAk4GQFWvJysQVkcJsAE1E2AFBzZs2FRytf1zFs4s+tCIUEb+dXFlm1bcKfsLVTOfgQnN50TpoQV8ed3J/Fn7EmUcisJ70+6AP/5s6V9SlXqPYw7t/OcbjR92guHvzkhzbrJM11UJ05MwBgCiYmJ0jrArl27YtiwYax0GQON8zABJuAyBFjxcpmmZkGZABNQC4HilK+Haz+EJk976hVnT8oeVLxUA+7ZNXHkp7+lj5zR3fNhNBxcW97VfNeTPSWKI+XcyyBy/dsa80JWujSYeKMYAnFxcVi9ejW8vb0RFBTEM6TF8OLTTIAJuB4BVrxcr81ZYibABFRAQJ/ydSn9Ko78kCGcY2Qgfcu5QlI8Oq48Uv9KRd0sEWRZT7p04gqWPrFez5n8Q2vv56/pYqUrnwtvGSYQGxuL+Ph4+Pr6IjAw0HBmPssEmAATcFECrHi5aMOz2EyACSifQCHl6/RoJLySXGTFk3fsQplq5VDj7H/rugrkJG+FOX/rd8pBWQuu6SpwOe8yAb0EYmJikJCQAD8/Pzz77LN68/BBJsAEmAAT0Fj6MwomwASYABNQIgFSvijgLK23IsWoqHSj4hVcfPQUqmfqV7qKuk4+zkqXTIK/TSGwcuVKSekKCAhgpcsUcJyXCTABlyTw3xJrl5SdhWYCTIAJqIKAMcrXpUfOSLLUOFPPZJlY6TIZmWIvePDgAdLS0pCamoo7d/I8VcqVPXLkiHT8/v378iGzv3NzcxEVFYWkpCQpDIK/v7/ZZfGFTIAJMAFXIcCKl6u0NMvJBJiAqgkYUr7uuuXiQt2TqHm6PkrnupkkJytdJuFSfOZbt25JbtybN2+OgnHXKKYWHb9y5YpFcuTk5GDBggVITk7GhAkT4OPjY1F5fDETYAJMwFUIlMjKyhLRXTgxASbABJiAGghMnTpVCrJc425tTZDlzPrHkFnvGJr83hPlr+oGRzYkk6x0tW7dGhRDjJP6CZDiVbduXY0gu3fvRv369aX9GjVqSN8nTpww2837hQsXJM+FVAYFRm7VSr8jF00FeIMJMAEmwAQ0BEoIswSLFC8KqFm9enVNgZZucHmWEWR+zM8UAvy8mEKrcF5H8ZPjfMnK1+Fum1DpYk14HjH+R7CsdNH6MZpNMyY5Sl5j6kZ5uH7AzZs3Ub58eQ2yvn37YtOmTShRooT0oROXL19G5cqFA3AXxy89PR3z5s0DKXevvvqqNLOmuZGejeLK03OJwUNcnkE8xZ5kfsUiMpiB+RnEU+xJ5peHiE0Ni31UOAMTYAJMQFkEtM0Otz7+nSZgsrG1NEfpMrZszqccAnXq1MGWLVvwzTffWFwpWjMWGRkplRMWFlas0mXxDbkAJsAEmIATEmDFywkblUViAkzA+QnIyleJKvdwP6eEFDDZGKlZ6TKGknPkoXVYlCZNmoSLFy+aLVRKSgoiIiLg6ekJUrq8vLzMLosvZAJMgAm4MgFWvFy59Vl2JsAEVE0gJCQElSpVwtkrpwy6mpeFZKVLJuEa38OGDcOAAQNw9epVzJgxwyyhd+zYIZkX0jrA4OBgeHh4mFUOX8QEmAATYAIcx4ufASbABJiAagns3bsXVapUweOPP15snC9WulTbzBZVXHaasnTpUpPLSUxMxKJFi9C1a1dMmTLFbIccJt+YL2ACTIAJOCkBnvFy0oZlsZgAE3BuAqdOncLmzZvRv39/yTmGoSDLrHQ597NgSDpyH0+eME1NcXFxiI6Ohre3tzTT5eZmWpgCU+/H+ZkAE2ACrkCAFS9XaGWWkQkwAacj8Ntvv0le6vr06SPJJq/5yip9VsfskJUup2t6kwV6++23UbFiRaOvi42NlVzG+/r6IsTQzHIAAEAASURBVCgoyOjrOCMTYAJMgAkYJsCKl2E+fJYJMAEmoDgCFAA3ISEB9MOY1njJqaDyxUqXTMa1v8kcdf78+RoI5Fq+qBQTE4P4+Hj4+fkhMDCwqGx8nAkwASbABMwgUNqMa/gSJmB3Avfv38fJkydx5swZyTsX/fC8ffs2bty4Ia1xoR+f1apVA7lPpmChJUvyOwW7NxLf0G4Etm7dCgrB2K1bt0L3JOVLjvNFJ02J01WoMD6gOgIPPfSQ9GwUrDgFO6aPofTDDz+AnGkEBATA39/fUFZVnePxQ1XNxZVlAk5NgBUvp25e9QpHA+X27duxe/dupOzdh2NHj6B2nbqoUcsDVapWQwWhaJVxKysJePF0Jq5fOYrLly4i659MnD1zGo0aN0GH9u3QuXNn9OzZkxUx9T4KXHM9BCggbr9+/fDYY4/pOQtpzRcpX3fu3DE6OLLegvigSxDIzc3FkiVLkJycjFGjRsHHx0fVcvP4oerm48ozAacmwIqXUzev+oTbtWsX4teuRZLwptW4aXO0aNsRoydORdOWbVG6TBmjBLorfmymHd6Pw/tTsGTpckybNg3e4oeE35Ah6NKli1FlcCYmoFQCv/zyCy5fvoz27dsbrCLNfGVnZxvMwyeZQE5OjqR0HThwQDItVLPSxeMHP89MgAkonQArXkpvIRep37p167BiZTRyhdLUs78vlny7DlVr1DRLelLQWrbrJH2ogEtZF7AlcR0iZs+Bmzg3OmgUBg8ebFbZfBETcDSBPXv2gGIqtWrVytFV4furnEBmZiaWL1+OtLQ0UEy4evXqqVIiHj9U2WxcaSbgkgRY8XLJZleO0Nu2bUPU5wvhVrYchj03Ft16D7B65UiBe+b5sdLnt20bseq7GEnJC540Eb1797b6/bhAJmArAocOHcLBgwcxbtw4W92Cy3URAunp6VJg5Fu3biE8PBzNmjVT3Qwpjx8u8rCymEzAiQiw4uVEjakmUWiwn/X++zhw4CCeHT0efXzsMwNFih19tooZsDkff4KkjRvxjnC1XK5cOTXh47q6KAE5YHKvXr1clACLbQ0CqampkpdD+rsXFhYGLy8vaxRrtzIcP36s5fHDbq3NN2ICzkWAXb85V3uqQhoylSI32CXcKmBhTLzdlC5tOKTo0b2pDlQXqhMnJqBkAtoBk5VcT66bsgmkpKQgIiICnp6eqlS6lDF+DOHxQ9mPOdeOCSiWAM94KbZpnLNiFB9m5cqVGD813CZmhaZSGx8ShuZt2iM0NBQTJ06UPMWZWgbnZwL2IFAwYLI97sn3cC4C5Cp+0aJFaNOmjWSu6u7urioBefxQVXNxZZkAE9BDgBUvPVD4kG0ILPjsM2zf8SsiP/8KHrX1u8G2zZ0Nl0qmh/UbNsanM8Pxd0YGZggljBMTUBKBogImK6mOXBdlE0gUnmKjo6PRtWtXSelyc3NTdoUL1I7HjwJAeJcJMAFVEmBTQ1U2m/oq/fEnn2D/gUOY/fkKRSldMklSBCOjliP1yDFQXTkxASURMBQwWUn15Look0BcXJykdHl7eyM4OBhqU7p4/FDmc8W1YgJMwHQCrHiZzoyvMJEAvalMTTuK9/5vkYjFpdy3rFS3WXMXS3WlOnNiAkohUFzAZKXUk+uhPAKxsbFYvXq1tJY1KChIeRUspkY8fhQDiE8zASagKgIlsrKyHqiqxlxZVREgm/yEnxOlmS4lK13aUO/eycWMSaPh+6QIuuznp32Kt5mA3Qns3r0bq1atwoQJE9C0aVO7359vqF4CNNNFs6UDBgzAoEGDVCcIjx+qazKuMBNgAsUQKF29evVishg+nZ2dDUvL0L4Dl6dNw/RtJfEj71PkSIPWdKlF6SLiVNdp781G2KQX0KJFC3Tq1Mn0hvjvCiW1hz4huH76qBh/zB78yPU3BUzu0aOH8RX7L6c96mdypbQu4PppwTBj0xA/+ttLSldAQAD8/f2NKt1QeUYVUCCTJeXx+AEprhr/virwUJmwa8nzp+82XJ4+KsYfY355rNjU0PhnhnOaQIDirFB8GPJeqCRHGsaKQHWmupMMJAsnJuAIAnLAZEuUf0fUm+/pOAK5ubmIiopCUlISRo0aZbTS5bgaF74zjx+FmfARJsAEnIMAK17O0Y6Kk4KCI3ft1V8RLuPNhUPeDkkGkoUTE3AEAQ6Y7Ajq6r1nTk4OFixYgOTkZMk01cfHR5XC8PihymbjSjMBJmAEAVa8jIDEWUwjsG3bNhw4cBAUI0vtiWQgWUgmTkzAngQ4YLI9aav/XpmZmdJM18GDBxESEmKWaaoSKPD4oYRW4DowASZgKwKseNmKrAuXG/X5Qjw7erzTECBZSCZOTMCeBDhgsj1pq/te6enpiIyMRIaIQxgeHo4OHTqoVqC88WOcautfsOI8fhQkwvtMwLUJsOLl2u1vdenXrVsHt7Ll0MdnsNXLdlSBJAvJRLJxYgL2IMABk+1B2TnuQc5XSOmiRGtSmzVrplrB8sePIaqVoWDFefwoSIT3mYBrE2DFy7Xb3+rSr1gZjUHPBFq9XEcXSDKRbJyYgD0IcMBke1BW/z3I+UpERAQ8PT0lpcvLy0vVQvH4oerm48ozASZgBAFWvIyAxFmMI7Br1y7k3rmjaocaRUlKjjZINpKRExOwNQEOmGxrwuovf8eOHVi2bJkUaiA4OBgeHh6qForHD1U3H1eeCTABIwmUNjKfy2W7f/8+Tp48iTNnzuDixYsg05/bt2/jxo0bqFKlCipVqoRq1aqhTp06qF+/PkqWZB02fu1a9Ozv67TPCslGMnbp0sVpZTRWMO4fxpIyPd8vv/yCy5cvo3379qZfzFcogoCt+0diYiKio6PRrl07TJ48GW5uboqQ25JK8PhhCT11XWvr/qEuGlxbVyPAitd/LU5/CLZv347du3cjZe8+HDt6BLXr1EWNWh6oUrUaKghFq4xbWSn3xdOZuH7lKC5fuoisfzJx9sxpNGrcBB3at0Pnzp3Rs2dPl1PEiF+S+DGw5FvnXQfVV6z1GjdiMD4Q7uVdTdHm/mG/oYECx1LA5FatWtnvpnwniwjYs3/ExcVh9erV8Pb2hq+vr1MoXTx+WPT4Kf5ie/YPxcPgCro8AZdXvMi8gd60kdLQuGlztGjbEaMnTkXTlm1RukwZox6Qu8IELe3wfhzen4IlS5dj2rRp8BbxU/yGDHGZ2RFSWolf1Ro1jWKmxkwkG8lIsvbu3VuNIphcZ+4fJiOz6IK0tDSQO/Bx45zHq5tFQBR+sb37R2xsLOLj4yWFKzAwENnZ2QonZFz1ePwwjpPactm7f6iND9fXNQm4rOJF3pNoIS+t2yETMpqpMVdpIAWtZbtO0oceo0tZF7AlcR0iZs+Bmzg3OmgUBg92Hi9/+roKzRSS0mqLdPlSNipWdDdaEbZFHeQySUaS1dkVL+4fcovb9/vw4cOSKXOvXr3se2O+m0kEHNE/YmJikJCQAD8/Pzz77LMm1VfpmY0ZP25evy6sTtxQqnQp3BQm/+UrPGyUWNevXUWFhysalZcyXRTjd9Xq1VGihPHLB25cvyaVX1ydePwwuhk0Gfn3lQYFbzgJAZdTvCg4I8UJIffgw54baxNHEKTAPfP8WOnz27aNWPVdjKTkBU+a6LQ/2Mk8k2YKrZHiVsfg7p27mqIi3p2BwcMC0LJNfmwaGnyHPvsc/v7rGNbExmjyli9fAWWEsrs/ZbfmGG307OONgFFjdI6Zs9OybQesWDjXnEtVcQ33D8c1EwVM3rlzJwICAhxXCb6zQQKO6h8xMauEeXMJ6dnw9/c3WEc1nixu/Mi5fBFBT/lieNCLGOj/FAZ2b4tdqadx8vgRLF7wKWo84oHX35xVSPSrV3LQvaUXtu0/JpYMVC90vuCBeZEz8fXSL/Dtui1CWctX7GrUqIXSQukjpWxjQjyOHfkTJ46m4dLFbMRt3oU5M9/Aw5XcMe2t9wsWqbPP44cODrN2XPH3lVmg+CLFEnAZxevWrVuYJdbmHDhwUArua684U+QNjz5bxQzYnI8/QdLGjXjn7bdRrlw5xT4UplaM7LdpTRyZZ1ojvTpuFELC3pHWUVHZbdp3FG8ga4i1dBmgfUrzImdJilepUqWFk5PqeCf0Vbzz0afSzFiHrk+gkTAJLF+hgpQ3+suFOH/+rLRt6X8kI8lK9XCmdV7cPyx9Miy/ngMmW87QViU4qn90fqIXMo6n4s8De3H9xk3sFuv/fIQZuyuNH5uEovPejBB0790PgWPGI/vCP6DZr5dG+CFbKEIvTgrBQL+nNU1/5I+DOi/umrVsg8/nzob/UyM0eUqUKIHmbdpp9mlWbP6c9/Hdii/h8WhdTH4hL2/unds4eeI41mz8DW07dkHOv5dwQLzUO5CyB32fHIRxr7wmZsZK4Od1a9CkWQu8M22ypsxJr4XhkUfraPZpg8cPHRwW7+T/vlrrtL+vLIbEBSiOgPFz6YqruvEVosXqtAi5hFsFLIyJd0hwX1L06N5UB6oL1clZEnl/JEckxq6JK07uoJcmCnOrqujWq6+Y6XoWZzIyUOexeujaoxfiv1+F0eOD8dLkvNm1uvXqo9MTPdCsRWuMFQMwzWrVfcwLzw97Eq3EDFm7Tk/gtlC669VvUNxtjTpPMpKsJLOzJO4fjm9JOWBynz59JI+pjq8R10Am4Kj+cS3nMr5ZMl9Susg6Y97y1S43fmxN2oB5s2cJBeZRNGneEpPHDMfT3t2Rk5OD8VNex09itmnI0yPw7vRXcOrvv6QmIyXr87mRmg8pZ9tEOdrHFs6fLeV98OA+Fs3/GL3aNsK50xn4OGoZfk4+qPl07NIdPoP8JaWLLqhdtx5eFS8FvRo0xCMej+Le3XtYsfh/qFXrUQSINurcrRc6du2OleJlX5kyhT1N8vghYbf6f318hjjt7yurw+ICHU7A6We8aCHyypUrMX5quE3MCk1twfEhYeJNW3uEhoZi4sSJ6Nevn6lFKC4/udwn74/WShOmTId/vy6I+moVwqaMw+JVPyLynTDsSf4V4TNnY9zIofh6TZLmdts2J4oZrmaS6UdVMfuVdeE8GjZuKpmGUKaTx4+hntfjmvyWbpCsJHODBtZR5iytjyXXc/+whJ71rpUDJnfokG9Oa73SuSRzCTiqf2SfP4c1q5YjQ5hSj3wxGC3adZZEcLXxo1c/b/Qe4INZ4a+hVKlSmPO/pShTugwa1iqPuR/NRCX3yrh58wYO7t2DsFl5ytSCpfmm5wTt/z56F/fu3cP0tz8o9BjQOq7c3NtYErMG7pUrY1LQcGz+eZ0wW5wpzbJdEzNhS2J+0ly3acNavP/mazh/7hx2bt+CxHU/4a8TR/FV7DrhXGsfjhz5A0OFIlhfKGbVinA0xeOHBqfVN5yxf1gdEhfocAJOrXgt+OwzbN/xKyI//woetR9zOGy5AjQ9Xr9hY3w6Mxx/i9mcGUIJU3OiOGfkct9aab54w/n0yCC4u1cR7vr/wVuvBSPz7Bms/D4Bf6f/JS2qfke84ZwTtVSYlNzB119+gatX/sWv2zajn88gdO/THw0aNcEtsQD7vnijeSTtDzxSuw7ui8G3pBi8LU0kK8ms9sT9QzktKAdMflS82eekDAKO6h9n0k8g5sv/ibiRNzE6eBoaNm2pA8SVxg/573U7YebnJsK5XPrPi+Oq+I3469gRiUtpMbP06cLlqCjWWJmTXpn+luayHzb+iqcHdEenpo/h2edewPwlX6NM2bwwMpRpkFhr3LZDZzwh1o29GDwVU0Lfxum/T6KOZz2k7PoNV//9F7XETNg7EfM0ZRbc4PGjIBHr7jtb/7AuHS5NCQScVvH6+JNPkJp2FLM/XyFM4ApP+TsaPimCkVHLMSt0Mqiu04ULerUmMpOiOGfWSv2eHCy9oYz6v0hkiEGtYZOmmL84GrfFm8lJLwzH1pRUjBo2EIf3/Y7jYvA9I0xEgoU9fYvW7bBt4wacEMc2rF0jPvmerDo2roPVG7YKM5CeFleTZCWZ1Zy4fyin9ThgsnLaQq6Jo/rH8bTD+Hbp/1C27EMYEzwddbz0z6q72vjx47fROHxgnxjLdX+ykBMmMiX8+997ctMh9eB+rI//QbO/+9dt0vbH7+crWE8K88GW7fK98JKjjA1rf8Q3y76QZrNeEObsXXv0wZakBOlaz/qPC1PHvLh6X8yfIx37v4/eEzNbjVFNeECcOiEIQwMCpeMfvTMDPYQzp6ISjx9FkbHecWfqH9ajwiUphYBTrvGiN5WkdL33f4sUqXTJjU8K4ay5i6W6Up3Vmm7fvq0JLm2pDPv27MRHb4eCZrRqijeH/cUC5pMnjmHyiyMROvkljHn5FWFf3xg/7zwgDZxkiuP39HCd204Nf08aiGkwlj/devYRboiNi8umU5ieHQqkTTKrNXH/UFbL0RoiDpisnDZxVP/4Y99urIj6RMzOP4axr4QWqXTJpFxt/Pho7kLJk2Hk/CV4PXyWtL1t31EZh+b73r27ksMLcnpBn5Il86wc5H36ltPa72OE18P66N+5Bb787FNUF94Le/f3xt8nj2PVisXS55MP3sa3wukGpQuZZ5EQ94O07it8ZiQ+eOt1xH69HK20lLhuPfshaX2+eaJ8L/mbxw+ZhG2/naV/2JYSl+4IAqWtEYDRGmVoC29JeWSTT+aFNNOllvTW7M8wY9JoPCy88FGMFkuTJfz03bu48m4Ikz5rJa8GjSTzDRo8nx01Vir2p9hvcE24BX7+pUnSfqKYzar3eANcv3IJFcqXRftOXXHhn/OaKkT9XwRu3byp2SfTkDvCJLFsmXyTEc1JMzdI5uK4yEUbm0/OX9y3JeVx/4DR7VZcO8jnLWkPOWDyyJEjNfWypDy5TtrfXJ42DcPbjuofKTu3Yc03y9CoWUs8/fxLeFiYWRubXG382LYxAXU9vYrEQzNZ2rNZ8hqvgq7e9+36BWfSj+GN9+egV38fTJs4RnLU4Tv0GZ2ylwiF7KywqqC0dOECDBfj0nmhgHkI8/UfE3+DX9/OYu3Zl5JzDsrTb+BgSSEjU/dy5cvToUKJx49CSGx2QO39w1Qw/PfeVGK6+e3Br3R1MU1uSaJKWlqG9v0tKY/eHJMjDVrTpUTzQm05tbeprtPem42wSS+gRYsW6NSpk/Zpk7Yt4afvRsaUV6VKFVw8nanvcpOPUayVFm3a4tUXn9coXpnnzuDfS5c0Za1bEwtvYSpC3qxOCtfup079LQJh3xWzULekPLliNupObq4mP21fEbb3FSubtwZAU9B/G3eEyWMV4WDDmOfeGH4Fyze0b0l53D/ylC5j2s1QG2ifs6Q9qJwTJ05IAZMHDRokFWtpedp1o20uryCRovcd1T9+3bwBG35cJTldenb0RI1ToKJrqnvGlcaPO+Jv+6YN6/ChmP26dvWKFNKjTl1PXSBG7rXr0ksaP8qWLml0gOUGDZug/6Ah+ODNvKUBf4k4YmT+2LOvt5gVWyLdmUKfNGzSTKw53oT+voVfpPL4YWQDWSmb2vuHKRj4770ptArntRc/XYPpwvVQzRGKsxIWFiZ5L1SSIw1jAVKdyfMiyZCQkKCqOC2VxJqn61cKm3wYK7u+fOSpiswOKZ09lYErOf9q9v+9lO/YoveTQzB3Vh6zWBFb68khT4FMDbUTmYeQgw0Pjzrah83evi7Wd1Wq1Njs6x1xIfcPR1A3fE8KmLx582YOmGwYk13OOqp/bF73I7Zs+AmduveB/8gxZsvq7OPHZ8tWIf34UUwcHSBmu+oJk79z6NaiHvoKZ0qffrEM5BaePBRevpSNM3+n63A8LxwzUaI1wdqpTj0vyONHa+G8g1Lc6hj8cXCfdjbs/30XGosYXZQoXIl2qly5Cl4LnymUrzLQtvwYNnyU2L+unVWzzeOHBoXdNtTcP+wGiW9kNwJOo3hRcOSuvforwmW8ua1H3ngoUCbJ8tGHH5pbjN2vq1atmhjw8pUhSytQsaK7WMfVAAtEQEvtJO+n/XlYc7i6iJ9St35jjHy+BgY/87xwtpGmOffWa5OwY8tGyUEHxQbT9k6lyWTGBslKMqspcf9QXmtxwGTltIkj+sfPa77Fjk0JeKK3NwYFPG8xDGccPyiwceCQ/tKaKwps7D1kKCa+GoqHhFk+zTx9/80KhL/6ssQufuse7N21E599rH/sfOv1/ODGdMEr09+UZqT6DhyKbT+vlcp4SJgGugtlSjuVF/cqKslmjRRfjMaa4NffkLI+N3ZCUZdIYyWPH0XisdkJtfYPmwHhgh1GwCkUr23btuHAgYNSAD2HkbTSjSkOxcRAP5BMvXv3tlKpti2mTp06wu27dUwNqaaP1n0MX32/ochKp4u4Ke6Vq2rOv/z6m1g89wM8uJcL//88S9HJMLH4edLUMNSoWctqSheVS7KSzGpJ3D+U11JywGQKpk4zxpwcR8AR/WP96q+xc1sSevT3xZPDRlhNeGcbPyo8XBHzv4xGzUcelcKIaIMis/Rxr7wufWhMeLhiJUmR0mfep31dwe1+g5/Ckrkf4rnRL6KtCJhM99ROI4LGijXCd7UPYcY7H6K8Vr53IuZKnng9atfVyadvh8cPfVTsc0yN/cM+ZPgu9iTgFF4Noz5fiGdHj7cnN5vei2QhmdSS6tevj7NnTksxtexRZ/JqSHb02qlbrwH47ZeN2oekgZiUOGvNdFHhFDeMZCWZ1ZK4fyivpeSAyd26dVNe5VysRvbuH3EiMDIpXTTTYk2lS242Zxs/6j3eqJDSJcsqf9OYYEl6QljLpB3eV0jpojLdq1RDdfHyTjvV9KgtjS/yMVIMjVG61Dt+jJNFVf232vqH6oGzAIUIqF7xWrduHdzKlkMfn8GFhFPrAZKFZCLZ1JBKliyJRo2biIFrv8Oq27xdZ1StWgO0ZsKWiWQkWUlmNSTuH8psJTlg8mOPKSewuzJJ2bZW9uwfd4WTn5gl87Hn160Y+NRI0EyLLRKPH6ZTpfGDZtB4/NBll98/huieUPGe2vqHilFz1YsgoI5fj0VUng6vWBmNQc/kBS40kE11p0gmkk0tqUP7dji8P8Wh1aWF0rRQPfufczarB8lIsqolcf9QXktxwGTltIm9+se1nMv4RihdtIZ32HNj0b3fQJtC4PHDdLw8fhRmZq/+UfjOtj2itv5hWxpcur0JqFrx2rVrl3AjfkfVDjWKanBaCEqykYxqSJ07d8Yf+3W9Rtm73uRoQ3uhtC3uTzKSrGpI3D+U2UocMFkZ7WKv/pF9/hxWLfscx4Vn1ZEvBqPDE71tDoDHD9MR8/ihy8xe/UP3rvbZU1v/sA8Vvou9CKha8YpfuxY9xeJkZ00kG8mohtSzZ08cTfsTl7IuOLS6ZL5z6VIW/ty32+r1INlIRpJVDYn7h/Ja6dChQzh48KBFsfqUJ5U6a2SP/nEm/QSWfTYH58+ewujgaWghTNrslXj8MJ00jR/kkp7HD0i/Pfj3lenPEF/BBIojoFrF676I2ZSUmCjieDjP2q6CjUWykYwkq9ITrXny9vHBlkTHr0vT52jDGvxINpJRDeu7uH9Yo8WtX8bevXulgMm9evWyfuFcotEE7NE/jqcdxvKoj6U6jQmejoZNWxpdP2tk5PHDPIrkaGPnL5vMu9jAVTx+GIDjgFNq6h8OwMO3tCEB1Spe27dvR+OmzVG1Rk0b4nFs0SQbyUiyqiH5DRmC7SIujaOTrRxtkGwkoxoS9w/ltZIcMLl///7Kq5yL1cjW/eMPMeO+IuoTPFL7MYx9JRR1vBrYnTCPH+Yht5WjDR4/zGsPW12ltv5hKw5crv0JqFbx2r17N1q07WhXYhcyz5rkMv2iME178MCy2SqSkWRVQ+rSpQvcypTBb9t03bo7ou7WXihNMpFsJKMakq36R+bZ07h/757RCC6I9S2W9gFDN1NT/+CAyYZa0r7njOkfN69fl/7e0/N74/o1oyv429ZErFoaJWa4WmDk2EmoLlyNF0xUtnaie9D4Yu2kpv7B44e1W9/88ozpH6aWTq70rZmoD926ccOiItXUPywSlC9WFAHVBlBO2bsPoydONQlm8vYtiP7ScHysVu074uVXQ/WW++q4URjy9AgEjik+Zti8yJn4eukX+HbdFhEb5GFNeTVq1EJpNzfNfnEbLdt2wIqFc4vLppjzo4NGYdV3MQ53eKK9UPqZ0RMs5rP++xiQbGpJ5vSP4mT7IWYlXp80Bl/GrEGVatU02Vu0bo+y5cpp9uUNyj8rPATfrd+qibtWokQJ1KjlIWex+Fst/YMDJlvc1FYtoLj+kXP5IoKe8sXwoBcx0P8pDOzeFrtST+Pk8SNYvOBT1HjEA6+/OatQnTavX4MtCWvQqHkrPPfSFL1/6+nHYo82DbBm42+o41lPvMi4jzvC1bxfvy5Y8vWPaNaqrVRuqdL5w/PXX36OTT/rX+/b13sQgsZPLlQXOqCW/iFXnscPmYRjv4vrHwVrt+7HWGyI/17n8MjR4/DJB29j/pJoeNZviCkvBqKf8Dz8dGCQlO/PA/vwd/pfuHXzJm7euIabt27h30sXcervkzidkY7sCxfwwf99jt4DntQpV9757JMPUe6hhzAl9G35kMnfausfJgvIFyiSQP5fdkVWT3+lyD7/2NEjaNoyb4DSn6vw0TMZGbghOrjcUemH4WXR0V+anKfA7d65A7+Lj6x4ZZw8junBL2kK+ifzHGa/F4afYr/RHBs2/HmMfCE/uOD1a1cxf877+G7Fl/B4tC4mvzBCypt75zZOnjguDbZtOxo/a0IykqwksxrWFg0ePFhyg79VrIdydGw1Wii9eO4H0kJpMh8xN5EsubdvgWRTQzK3fxiSLeGn7yUl6ukRz4sB9gcp62/iRcbdO3excffhQorX+jWrpfy169bDay+PkfKfPf03yriVRcrxTEO3MumcWvoHB0w2qVltmrm4/rEpIR7vzQhB9979pJds2Rf+Ab1df2mEH7KFFcOLk0Iw0O9pTR2P/HFQ6gd/7EvG4X17kHP1Os5k/oMjfx7W5KEXDs3b5IWhiP16GZo2b4m69eqD+tWkF4bjkUfzZsXGPZ8X2+v8uXPYf/IfKbYUFXIk9Q+hRHXEyKD88YiOr1r5JY4dSaVNvUkt/UOuvNLGjyVzP7TC+LHW6cePTl27Yf7sWXhl+pvIEIrTwZTdaNW2PZ57YQLeDZ2C8FlzsC9lF+Yuzg+Rc0k4MTkovASXLlUaW35eL7w438bEV2egY9ceuHb1Cnz9n0bJUqXkR6PQ9917d1Gu3EOFjptyQG39wxTZOK9yCahS8Tp58iRq16mL0sL0y9RUyb0KWoo39JR++2WLVIa8n3n2LFKSf9UUeUMMttlZ/+CzL2M0x7Q3Yr5ajAzxxoYSmYrQm9Al//s/dOneEx9HLYP34KGa7DMmv4SGjZvBFKWLLiYZSVaSuUGDBprylLwRPGki5nz8icMVL2IkO9qwRPGKXbEYodOnKRm5Tt0s6R86BYmdq1dyMDMsBN+LlxT0gqJx4+ZSlp07toB+HE5/5wNsWr8WXg0bokOX7rgq4hXRj9bdv+3AqvjNaNY67+XI7t+2IfiFkVj8TZ7SVvA+5u6rpX9wwGRzW9j61xnqH1uTNmCe+AFJilAToRxNHjNcxCfch5ycHIyf8jo6PZHnFOXNkJcxIWQ6Hqv3OD6fOxtlSj5AObcyuJV7F0ePHpU+ZzP+1lS+ZKmS+N/y73Dv7l0s/Xw+Plm4FB+9E4rrV6/i2edewJyopZq8tNG3QxM8uP9A51jqof1Y/9NqnWNphw+IutbROaa9o5b+oV1nJY0fsqMNy8aPJU4/ftT0qI3y5SuIWap/kPPvZVSuWg0bE9YhaUMcLl+8JPrRSKFglZFmvcJmRsCrQWP06OuNDp27IWpuJDzq1MGCL7/GdfGba/qksdKL5r4+vihfId9aSPsZoe2zp/5GxUruBQ+btK/G/mGSgJxZkQRUqXidOXPGbHOl+B++A32004oln2t2+4nOrp3KlSuveVOpfZy2H6ldB9ev5dn+lyhRErm5t7FEmGG5V66MSUHDsfnndcIcZab0Q/SamAlbEvNTwSKM2ifTLJJZLYpX7969kbRxIxbPi8T4kDCjZLRVJhow6cfJ5nU/gmbATE0kQ5s2rUEyqSVZ0j8KyviHCPhKPw4plS1bTjyHGUg/cQwH9/6OV2e8Ld7k3kaiMK+igZYUr+Qdv+DcmdM4czoDvr06FCwOT3n3kI7NnD0Poye8Uui8OQeU3j84YLI5rWq7awz1j179vIVpk4+YrX0NpcTb9jn/W4oypcugYa3ymPvRTFRyr4ybN2+I538PwmbNlirp86Qvdm5LQg8R/uPJYSPwfx+9i3tiHeT0tz8oJMQq8bLuX2HGuOzzBdi/dzdeD5+F6a+8hC1JCTp5aWZNO/kHjMCxtDTtQ9J2H2Fm2Khp00LHtQ8ovX9o15W2efwoSMS++4b6R3E12btnpzAXvCQUqbroK/pF+85dcDT1T5BZ4JKYH6XLPYTDGTk9N3QA9v2+G55i9relZ3XpML3ge1XMnBlSuihj+okT0gz0K9PelIsz61tt/cMsIfkiRRFQpeJ18eJFYYJRzSyQZCr16RcrpGsXzpuNC+cz8W7kPGk/ce0akBmIdiLzqOAXntU+pNn+S7zZ7O09ULP/yvS3NNs/bPwVTw/ojk5NH5PeaM5f8jXKlC2rOW/KBslKMqspvfP22/D19RVKa3uHr/ciRxtzZ4WhtTDxpLVfxiZyqJEs3AonJOj+KDL2ekfls6R/FKxz1559QZ96lUthini+aS0XzQrQTNjU8Pek7D9+G42dwuyQEs3y9hkwUPqhmn45bzE15V8aNRdfxyVJed6aOkn6ttZ/Su8fHDDZWi1tnXIM9Q/ZtKmd+FvhJsxiL2VnSzddFb8Rfx07Im2XLuOGTxcul962x61ajj2/bpUCtxvzYufxRk0w6bVwaa3xZPGdeycXz4+dgDfen1NIuIfKlxfhOdYXmuUqmHHf78n4duUyDB42HH20xiM5n9L7h1xP7W8eP7Rp2HfbUP8oriakBFGsyx1bN0pmslWqVkfm2TOoWq066j3eqNDl3/yU54iLlmfQS4n3P41C/4FD4N2lFb6JS5TWhhW6SBwgx2X02+yhSxVw5d9LqFS5qr5sRh1TY/8wSjDOpFgCqlS8aKF6hUqVbA7138uXULlKNTzRs5/ee9HxZi1b65w7cTQNG9b+iG+WfSGZYr0wPhhde/TRvNH0rP+4MGFppXNNcTskK8msplRO/ECPjIxEaGgo6jdsDO23XPaWwxxHG5lnT4n1YRGYM2eOsCMv7DjC3jKYcj9b9Y/Gj1TQqQYpY3J65r8F0/I+fdMssPxN6xPlfbEhHbfWf/bqH2SidkssAKdUu3ZtuLvnmbncFIvD09PTpeO0lqep1gyEHDB53Lj8daBSRv7PYQSM6R/0MuGwWPxfuozuEElrGmk26sSFm4hZMh9/ihnh9l16YZ8wR6QPpd2/bpO+P34//0Xck4P80bJdR+klBp2kmbMRwvnAgo8/wNofvsXXyxZJ12j/t+PAcTwiPCK2bN1OOvy/TyPg/2wg6tb11M6m2a5RRGgVe/UPTUWssMHjhxUgmlmEMf2jqKLfej1Y+htJZrqzwqfi0L7fhenhv+IF9zk849NdumzsxBD4Dn1GWp5x+GAKwqZMQMWK7vgi+nuUFc4yftmUKH4zNMLUCaOxesN2aDuZke/7zfJFwlRxANp3egJfCtPd196YKZ8y+VuN/cNkIfkCRRHQHVUUVbWiK3NbmDfRIn1T09WrOfjh26/xy+a8N+93hGkg2e6v/c/0kPY7dOmmKZaccbQWXg6fE28k5bR/929oK+ySCyb6Y/Hm1ImSiRX9IKOF002atcDfwkEHfSidPX1arDnqi/fmLCh4ucF9kpVkVlvq1KkTJk6ciE9nhiMyarn4EePmMBFMcbRxV7yFpjpT3UkGtSVz+0dRcspugE9k3ZLWHNIM1sol/8Py1eulS8hJTbJ460/KqraCPVR4aaN0WczWknmVvH/mVAYaNWkmnbPGf/bqH0NEDLfU1FSpyu+99x7effddaTsuLg4jR47UiPLgQf7aHA6YrMGimA1j+8dHcxdKM7jbNv6MLGEZETBqjLTov3OTOvhGKF3HUg9j2HNjxSxwBZzUXs9VspRYo3JPvF8o/IJhe9JahIZMksaGp727izf6j6OmUK5oTIgWngvHTX5d8ur2q5gxeCD+0RpJ+pAnxPfCpmLgkGEoV/YhHZYVK7vD00CcMHv1D51KWWFHaeOHsY42XHn8IKczZ8+cwpWcfzHkqeHCQU1/fLXoMxwXL6SfGhEk1iPWFs9+S+np+G3bZjw/7EnpBVbu7Vy8+dokcV2OeNHdB01atMIBYYIY9X8RGmdo8iNFM1yx0cuxau0mVBdeop/s1gZjXn5F44hGzmfst1r7h7HycT7lESid/Z8phSVVs0YZ2vcvrrwbZsZuIDelZD/84sRXpdt9teh/4kdhNqa+8Z60T8rTxoQ4TVVoPYtXg/zpcfpheezPA9Knaav2aNUh74clXdC2Q0fJXKRXfx9MmzhGcjtPb3W005LPPhXKV4b2IaO3SebiuMiFGZtPzl/ctyXl9evXD38LBXZW6GTMmru4uFvZ9Lyxjjaorh3atwXV3RLZZWGsUYZcFn0XV565/UP7HtrbpzNOSrvvTs9bk3VaLGo+efwYyMEApRPCxXZdTy9sT1wr3Gi3QYs2eWu7Zrz7kXRe33/a/UrfeVOP2aN/0LodOZGyFRwcLO2uW7dOPix9y+1zTjgf2bx5s2RyKx/TyVjEjil5iyhC5zCXp4NDeLa9oXugmL1tGxOk55uyXRTOlije1PG0PzDyxWC0+M9bKs1myUle4zXtrfflQ9I3jR+HxQxZ586dUderIQYMGoZPxKzYIx6PivXAa8WswHls2hCPi9nCjEr8eNVOf6efQAuhgJHjGu10VfxQ9RJOl776foP24ULb9ugfhW763wFLnj8ljR/GOtpw5fGDXiyTqeG3wqszmcq2Fv3ijakvg9bOZ547oxOKp3ufASBzdHrx7e3rj6g57+HcubOYMXMOtm/eiFFjX8YqUY52eiCcmFFYn4FDn5ZebtO5Z55/AWMCBiN6TaLZzjbU2j+02cjblvQ3uQztby5Pm4bp2/r4la5ePW9Bo+nF5V1BhVpahva9jSmvSpUquHjadJfUR4VL3jEvTxFv5etKt6xctarkEEPeJ1tf7bRLmIyMHjdZc4je5g8fG4xDwi1q2qG90kdWwMjGuKCipbnQwg2aiasiHGwYw9kYfqZUxxrlzRDmhh9/8gnee20C3pr9mcNmvopztEFvKmnQbNGsCaZPm2YKpiLzWoOfduHGlGdu/9C+j/b2sbRUNGvRWooJRMdpreKFzEzN/i3har+UeDtPiWaD7/w3O0trw4pKr4wdiUARhsFQnqKuLXjcXv2DnC3Iaf/+/SDzSVLGNgpHMtpJ7qd0nGY9yEV2JSNNo41pX+17FbfN5RUmZEr/oGd504Z1+FDMfh1LPYQ1Xy+V/g6PDp4mAiTnvbkvfAf9R2j8CA59Txo/ft+5DUnxsbh4IRM9BwzCKeEd9+69O8Ky4ZaYLXsgvB/mK/lUGpmnr/slpVDBZKa4baNhpcte/aNQ5cQBazx/PH5Y9htNu12MaQ9T+odc9qm//xJWDZeEp84ZIrzBn1L4BfIS/Y8YJ2qJddXkpGZQL+FeXsRAlb1wkiXFO9MmS96lK1eqKBV1594D0HhCzjjSxcuGUK2Xd6R0ffh2qPTSb8HSGPnW0ov0X0QfGDmkH2LEOmJT13upvX9oQIgNY9pXO39x21xecYQMny+KX0nDlynzLP2IuW7imqejwiwk+ddfdEwJZenIxe+N69ckBwGlhQcrSoeFbTK5ivf29ZOzab5pposUMFK6SAH7blmUNJhqMoiNuNUxmDPzDZ0PLZQ2J5Gsxv5wM6d8e1xDikzbNq0wY9JoySTNHvfUdw9ytLFlw0/I/ueczml6Gx0WPAbNmjSymtKlcwM77pjTPwxVb8n/PpU8GI4Y/ZJYl/ISevV7UnL/K+/TGpQSJR5I/UG7nAwxcOpL506fwu+7fsXDD+cNtvrymHLM3v1jwIABUvXIW+GxY8dwQQT6lI/J9aZ1EuSUhRzMqL3vyjI5y7cx/eOzZatEHMbamDg6QMx21cNfR/7AErHmk1xl9/V9Cg2a5IVVuCxiEdFYof05L5wJkGmi9jHaprzkCOPt6a9iyRdR2LtnD1qLWEd3bl4Va1U641HxQnDQ0GeFOXo/4abeq1jc94XSv3dPsvCum/cisagL7N0/iqqHJcd5/LCEnmnXGtM/Cpb4x4H94rfVE9LvpWcCXxCzuf54VLiIf33iC3g5JBTVxPrDwBfG46WRQyWljOKdjh0+RMSnO4yftiQjU1gXVRDrHilRiAY6liwcNpFVBT3nFNdrnLiWwv3QOW038uT9MPrHRFSpUhUjBveX+lnB+hnad4b+YUg+Pqc8Aqpc41WtWjUp8LEpOPft2YVxr7yGqtVraC6rWdMDZcX6qePiDc3wQX1EZ66MNz/4WDof9+N3GPvyqyjt5qbJX3CDFDD6FJwBo3w0ze5euYrOJeUr6Don0DlpYIeCPJPMak9TXnkFDwsGYZNewPip4Q7xdqjP0QZ5LyRHGrSmi0xb1J7M6R9FyZx+4iguCXPcAVovIGimh2Z/6EXCAuGN6pIwv/Id4q8xvaUZsa7de6FX28ZFFYuJYjBuLhQ2ayR7949evXpJs1w0o1WvXj1JhN69e+vMfHHAZGu0rG3KMNQ/6Adh4JD+0rpcj0frwnvIUPTu2w8/ipmu+o0a40FJN8wW5oH0id+6B3t37cRnH3+ot6JvvZ5vLUEZKLhsXaFQhb77oeRw6ZUXR4o1YmOwTfSjfy9mobbHI0JhOyscMa3HkT8OibUveT9ECxaetO4nfPjWdBHz6BpqCkuIuYtXFMyis2/v/qFzcyvu8PhhRZgGijLUP4q6jKx9ZIsfeul8XpgVUuyuEBFyZKAIhEyJnv8/D+4XjmS+EOPJEBES6BEpxM7RP/Zj+5ZN+FWEIhk1Ls98m7whkung5DEjcPpUuiYE0Ldrt6Cc+G1VMD0kflcs+26t9KLk+29WiN96rxfMUuS+s/SPIgXkE4ojoErFq454k5L1j2mmhiOFWZPsJEBuhae1PLEdzLgkH5a+Xwt/DyXEP2NSQQWss1gD0Fy8yez4RB+dy0cEjcUd4RXL1ESykszOkPz8/NCiRQuEhYVJHsEcEedL29HGb9u3Si7jyXshLeamqWG1J3P6R1EyU6DL73/eAdnNNuWjdYz0oQX/j4sfo7/8HIc2HXUdzqxat0V6U6mv3BIlRc/6z+OhvvOmHrN3/+jWLU/WtWvXomXLPHOz7t2761SbAybr4FDUjqH+UUHMws7/MlpyeEFv0lN2bsMP0V+ikXAI8PTzL+Fh9yqY9PobIobQUTxcsRL6ixcS9DElNf7PucDHUcukWEX1hGMMellx+uQJyYJiiP9QTJkWDnfhUVdfInfbHZ/Ie97oB2pxyd79o7j6WHJeKeOH7GiDx4/CrUkzts1btZVcyGu/6Ka/+RRWh4IW0+fThV9JF6cd2oennxuN0Pc/1nESQ31RduA08dVQyWxbn4dDuQbUh76I/kHKJx8z5tuZ+ocx8nIexxNQpalh/fr1xeLj04UUqeJwUmc3NtGgS29RTEmyCWK7zt1x8khqIRNEGkir16xlSpGSjCQryewsiRQcMsN6kHsdEwP9sDVxnd1Fc69cAyu+mC/VgeqiRu+FRUEzt38UVZ724Kmdh9485ojZMAqsTM9+wUTKmr6PNZUuepli7/5RVawNbdWqlRTUfMOGvPU1bdq00YjPAZM1KBS5UVz/oHhD9Pf/180bsOabZVIswufGvSopXbJA9ELC0kT3oFTTo7bkkU0eP1q164IzwkxXnwk75ac+RQqXMUqXI/oH1dGWqfD4sdaWt9NbdqXK1Xn80EsG0m+cBo2b6lgXyVlpzND+HUbWQpT6Dhyqo3TJ+eVvusaQ0mVqPjm/M/YPWTb+Vi4BVSpeZOrUqHETpB3er0iy8gBqaA2YsRUnGUlWktmZEsVp+ejDDxE6fRrWf/8N3pg8BmTyZ+tE96B70eL25s2bobNQAtUWp6s4RvbsH7TGkZ5zRyVH9Q/tNV0DBw5EGa2XOhww2VFPg3H3NaZ/bF73Izb8uAqduvdBoFC6DJmcG3dX43Px+FE8K93xI4bHj+KRGZ3DmP5hdGHFZHTV8aMYLHzayQmo9td8h/btcHh/YS9PSmovawygJCPJ6qyJ1sasjv0OI4cHSG+Xp7zwDL7/eplYN3TBaiJTWVQmlU1vsOledM/x48dj9erVOC/cODtbskf/kN9W0nPuqOSo/tGjRw+NyPQMa6eDBw861QyqtmzOsm2of/y85lvJAc8Tvb3hP3KMw0Tm8aN49Dx+FM/InByG+oc55em7xpXHD308+JjrEFDlGi9qHoqFsmTpclW0FA2g9CnohMOYH6x/7P8d41503OBvL8Dkcps+u3btQrxYOzNuxGA0btocLdp2lNyWN23ZVsdEwVC9yHyAZkLoRznxo7gi3j4+CJ8RKsXgka995JFHEBAQgPj4eEkJk487w7c9+oej31ZSO9mzf5Qunf/nkmI5yYnWd2kHyyV3zOSAg5NyCRTVP9av/ho7tyWhR39fPDlshCIE4PGj+Gbg8aN4RqbkKKp/mFJGcXldbfwojgefdx0C+b8kVCZzz549MU24KKfZjKrCVakakqkDKMlGSgPJ6iqJftDS54P338f27duxe/durFg4F8eOHkHtOnWFJyQPsbahGiqIkAIUcZ4SxeEgl7DknYgWytKaHzLPpLd2pLQSv6JMNf39/REREYG9e/eifXvHmcxZu31t3T+U8LbS3v2DZrK004MHD3TipmSIQOFvvPEG+vfvr52NtxVIQF//iFu1HHt+3SqtNyEHPEpLPH4U3yI8fhTPyJgc+vqHMdcZm8cVxw9j2XA+5yegWsWLfkjTLMYW4ZjhmefHqqqljB1ASTaSsSilQVVCm1hZkrm3MOGiD6X79+/j5MmTkkODixcvguIk3RbBTSniPAWXrlSpseRynzyW0eJ5U5h5e3sjKSnJqRQvW/cPJbytVFr/+O2336SZrz59dL2ZSg8w/6coAtr9Y+izzyN2xULJy+rAp0aie7+Biqprwcrw+FGQSOF9Hj8KMzHliHb/sMXvKx4/TGkNzutsBFSreFFD+A0ZgojZc1SneMkPUXED6PZNCZJ5nJzflb9pIGjQoIH00eZQVGRw7TzFbdNMF814xcXFQXYVXtw1ajhvq/6hhLeVxF9J/YMDJquhR+jWkfrH7I8/xvWcizgmArkOe24sOjzRWzeTgvd4/DC+cXj8MJ6VnJPHD5kEfzMB6xJQteJFZgVuwpsYearr1nuAdcnYsTR9A2jpMmUl2UhGTrYnQPFhyHS1UaNGqF69+Ng4tq+R5XewVf9QwttK6vPU95XSPzhgsuXPq71L8PT0xEMi9g8pXSNfDEaLdp3tXQWr3I/HD6tgtKgQHj+Mx8fjh/GsOKdzEiipdrFGB40S7shj1C6GVH8aQIePDZbcc+/ftQONGjbA77//7hSyKV0I2dEGBb51pmTt/qGU2S7q8ySbUhIHTFZKSxhXj/T0dERGRooYdGXxoEQp1Spd2tLy+KFNw77bPH4Yx5vHD+M4cS7nJqB6xYu8GeXevuWQILy2ejQuiqC0t3JzMXToUKSkpGDhwoWsgNkKtla55Gjj8uXLktmh1mFVb1q7fyjhbSUF3KY+T7IpIXHAZCW0gvF1SE1NlZQuuuKdd95xwvEji8cP4x8Hq+Xk8aN4lDx+FM+Iczg/AdUrXtREwZMmisXRi52mtUgWkqljx46YOHEiOnTowAqYnVqX4jORow1nStbqH0p5Wyn3D6W0EQdMVkpLFF8PepFFXkzJzDAsLAxeXl5OOH4s4fGj+EfBJjl4/CgaK48fRbPhM65FwCkUL/J816ZNayyeF6n61iMZSBbZmx8JxAqY/Zq1ZcuWkndEcrThLMla/UMJbyv19Q9HtlNaWho4YLIjW8D4e+/YsQPz5s1D69atERwcDA8PD+lia/UP42tiu5z6+gePH7bjXbBkHj8KEsnf5/EjnwVvuTYBp1C8qAnfefttJP+ySXK0odYmJYcBJAPJoi/xAKqPivWP0ULp1atX4/z589Yv3EElWto/lPC2srj+4Qi0hw8fBgdMdgR50+6ZmJiIRYsWoWvXrpgyZQrc3d11CrC0f+gU5qCd4voHjx/2aRgePwpz5vGjMBM+4roEnEbxKleunGS3v3huBDLPnlJdi1Kdqe604JtkMZR4ADVEx/Jz8kLp+Ph4ywtTSAmW9g9Hv600pX/YC/mpU6ewc+dODphsL+Bm3odmr6Ojo0Hx+mimy83NrVBJlvaPQgXa+YAp/YPHD9s2Do8fhfny+FGYCR9xXQJOo3hRE3bq1ElaE/XpzHDcvZOrmlalulKdaT0XyWBs0jeAktkTJ8sJ0EJpCtRM8b2cJZnbPxz9ttLc/mHrduOAybYmbHn5sbGx0uy1r68vgoKCDBZobv8wWKgdTprbP3j8sF3j8PiRz5bHj3wWvMUEiECJrKysB86GYumyZUg9cgyz5qrD4cY7U8ejWZNGeHHsWIuagpQuMn2iRLbmtJaBk/kEiCWtC5k0aZL5hSjwSlP7x3fLoqQQB+Su2hHJWv3DmnW/du0a3hYmwX369AGZFnFSHgGa6aL4agMGDMCgQYOMrqCp/cPogm2U0Vr9g8cP6zYQjx95PHn8sO5zxaWpn0CJByJZIkZ2drZVA85aq7yPP/kEqWlH8dbsz1C6TGHTEktktta19KZyVuhktGjWBNNF8F5rJOJHMWrIexcl8ohIbzbNTdZqD/n+aitv8eLFqFWrFugNpjlJqfIa2z/obSWZiVB8OXsnW/UPawTIph/1tA4wNDQUrVq1shoapT4vsoBqqd/KlSsl76QBAQFm9V1j+4fMxRHftuofPH6Y35oF+wePHzx+GHqaCj4vhvIac47LM4ZS0Xnsxc+pTA21cZIi07ZNK8yYNFqRa77IJj8seIw002UtpUuWX58JCQdilumY9u2MC6WJgLH9w1G2+bbsH6Y9AfpzywGTH330Uf0Z+KhDCOSK+IdRUVGS0jVq1CizlC6quLH9wyFCipvasn/w+GG9VuXxY69kLWE9osaVZMv+YVwNOBcTKJqA0ypeJPKUV16B75M+CJv0gqK8HZL3KarTM08Ntdi8sOimZTf0htgYe84ZF0rLshfXPxxlm2+v/iFzMPWbAyabSsw++XNycvDVV18hOTkZEyZMgI+Pj0U3Lq5/WFS4BRfbq3+wAmZBI/13KY8fgL1N1O3VPyx/OrgEVyVQ6j2RLBH+xo0bKF++vCVF6Fxr7fLq1q0rmdvN+XAmLpw/h/Zduuvcz947FGcl/rtozJ49W/phYG159ZVXu3ZtjbkhmSDKZoh0vLikr7zirjF0Xo3lNWnSRHqDTs+5qTMcSpfXUP/Y9nOc9Lay1qN1DDWpVc85on+YKgCZGNIPqqeeegpKb19XqV9mZibIrIviqoWEhEhu401tV335DfUPffltfcwR/YPHD+NbVV9/4/GDx4+iniB9z0tReY05zuUZQ6noPPbi59QzXjJe8laVkJCAB7nXMTHQD1sT18mn7PZN96R7Ux2oLqZ4L7RWJfkNpvkkyRV1UlKS+QUo+Ep9/cPes11K6B/GNNGhQ4c4YLIxoOyYh9YkURiOjIwMyREOrWu1ZtLXP6xZvjFlKaF/8PhhTEvpz+Na48da8Pih/zlZ7ptBAAAveUlEQVTgo0yACJR2FQwUp+WjDz/Etm3bEPX5Qmxc+wMGPROIbr0H2BQBTXuv/z4GubdvIXT6NPTu3dum9zOmcBpA6UPrvuQZMEudcBhzXzXnad++veRanpwqmOtoQ8nyF+wf5USso7Zdeti8ykrsH4aEpvACHDDZECH7nktNTcX8+fOl2IdhYWGoWLGiTSpQsH/w+MHjhykPGo8fptAyPq/axg/jJeOczkzAZRQvuRFJ8aHPunXrsGLlMnz31SL07O+Lvj6DUbVGTTmbRd+Xsi5gi5jh2r4pAW5lymB00CgMHjzYojJtcTErYKZRpYXS04TTls6dO0umZqZdrY7c1DcqVKiAn376CcnbN+OXzT+7bP8o2GIUMHnz5s0gT3mcHE+AXhqR0tW0aVOMGTMGHh4eIK9Utkw8fuTT5fEjn4UxWzx+uNbvK2OeCc7jmgRcTvGSm5kUIfrs2rUL8WvXYtyIwWjctDlatO2Ilm07oGnLtsINfRk5u8Hvu3fuIO3wfhzen4I/9v+Oo2l/wlss7A6fEYouXRwT+8hghQuc5AG0AJAidrUXSo8fP76IXOo/TD9ohw4dKs2Kcv/Ib08OmJzPwtFbFF9v0aJFaNOmDcaNGwd3d3e7VonHj3zcPH7kszC0xeOHa/6+MvRM8DnXJOCyipfc3KQY0eeD99/H9u3bsXv3bqxYOBfHjh5B7Tp1UaOWB6pUrYYKlSqhjFtZ6bI7ubdx/coVXL50EVn/ZOLsmdNo1LgJOrRvh3EvjkHPnj1RsmRJ+Raq+dY3gDZq1Aj9+vVTjQy2riiZGUZEREhmh2Q+4mxJDjtAzwIl7h95LXxF9Hdam+nr64tK4m8BJ8cRSExMRHR0tORAg5QuN2EW66jE/SOfPI8f+SyK2uLxw3V/XxX1TPBx1yPg8oqX3OSkKPX+zwyRjt2/fx8nT57EmTNncPHiRdAPr9u3b0tezKoIZaxSpcaoVq0a6tSpg/r166tS0ZJlL/itPYDSW/5jx45ZHIi54D3UvC8vlHZGxYtmu/Q5J3D1/rF161ZQrPlu3bqp+dFVfd3lwNXUB4OCghQjj6v3D+2G4PFDm0bhbR4/XPv3VeEngo+4GgFWvIpocRpIGzRoIH20s1g7srV22UrbpgHUy8sL5DWMnXDkt46zLpQuONuVL3HhLVfrH3LA5Mcee6wwDD5iFwKxsbGIj4+XZh0DAwPtck9zb+Jq/UMfJx4/9FEBePyA9KLa1X9f6X86+KgrEFCfPZwrtIrCZKQBdOLEidJMCClgCxculDwiKqyadq0OLZSmeE7nz5+3631tebOiZrtseU81lM0Bkx3fSjExMZLSRf1O6UqX42kpqwY8fhRuDx4/CjPhI0zAVQiw4uUqLW0FOXkAzYeovVA6/6h6t0yZ7VKvlObVfM+ePWjdujVatWplXgF8lUUEVq5cKa2vI2+Szz77rEVl8cWOI8DjRz57Hj/yWfAWE3A1Aqx4uVqLW0FeHkDzINJCaVr/R7Gd1J54tkt/C3LAZP1c7HE0NzcXUVFRUuDyUaNGOWX8PHtwVNo9ePzIaxEeP5T2ZHJ9mIB9CPAaL/twdsq70ABKH1cOxOwMC6V5tqvo7skBk4tmY8szOTk5WLJkCQ4cOIAJEyagRw/bB/O2pTxcdmECPH4APH4Ufi74CBNwdgI84+XsLWwH+Vz5DSYtlCbvluRtTa2JZ7v0t5wcMLl///76M/BRmxDIzMyUZroOHjyIkJAQVrpsQlk5hfL4weOHcp5GrgkTsD0BVrxsz9hl7uCqA6iaF0rTj1tK1HacdAlwwGRdHvbYIw+qkZGRyMjIQHh4uN7QBvaoB9/D/gR4/FCfoyYeP+zfT/iO6ifAipf621BxErjaAKrmhdKHDx/mH7d6ehAHTNYDxcaHUlNTJaWLbhMWFoZmzZrZ+I5cvBIJ8PihxFbRXyceP/Rz4aNMwBABVrwM0eFzFhHQN4DKb8gsKliBF6txoTSv7Sr6QeKAyUWzscUZMneNiIiAp6enpHRR/EBOrk2Axw9ltz+PH8puH66dcgmUyMrKeqDc6nHNnIkAKV30hoxSy5YtJRfdziQfybZjxw5MmjRJFWJ9/fXXTtkO1oD/7rvvonnz5uy+3BowiymD3PVTnC6a4Ro5ciQqVqxYzBV82hUJ8PihrFbn8UNZ7cG1UQ+BEg9EsqS62dnZqF69uiVF6FzL5engMHlHDfxoHQe94abUoUMHi9YXKU3exYsXo1atWhrX10qrn/xAyZ4oKTYS91+ZSt43BUwmj3qhoaHFxu5SavvKEim9fj/++CPo07VrV4wbNw5ubm5y1c36Vrq8XD+zmlVzEfHj8UODw+SN/2/vXuCkqO5Ej/+HecPAMMzwmEFAECGggBuIgEERfEViVm8SuQGFfPR+kCiJC24eJPvZaNa9C2tuLpGrS/SzQQNI7oW4bnDlXlDQKIJBiSARs6i8RMGZQYR5v5hbp3qqp0/PdE9VdU1PdfWvPp+hux7n9Knv6ZnDv+rUOV59/2g/HNN3msCr+rAyJz9Lwt1rsvzoauiufkiVgEBnXUisbgsJZOuLpKky0AYjGcb+ujBhcmwbL/eokUBV0KWG1F6yZEnCQZeXZSMv/wrQfvR83dB+9HwdUILUFSDwSt26S/mSB7EBTYWBNqwgV/mz6AJMmKx7dNfapk2bZPPmzTJr1ixZuHBhd30M+QZYgPajZyqX9qNn3PnU4AgQeAWnLlP2TILWgPp9oA2uVsb+VWHC5Ng2Xu1Rz3Nt2bJF1N1h9bvCgkAiArQfieg5T0v74dyMFAhEChB4RWrwvkcFgtSAqu5T27dv71HPzj6cq5WdqYS2MWFybBuv9qxbt062bt0q6tnCuXPnepUt+SBgPit87733ms8Nq+BgzZo1Yv29SzUe2o9UqzHKi4B9AQIv+1YcmSSBIARgkydPluLiYt8FX1ytjP0lZsLk2DaJ7mlsbJTHH3/c/H1YsGABd7oSBSV9TAHaj5g0Ce+g/UiYkAwQEAIvvgS+FUj1BlR1pVJX90+fPu0LY+vqr3Jl0QWYMFn38HLt3Llzsnr1atmzZ48sXrxYbrrpJi+zJy8EOhWg/eiUxfVG2g/XdCREQBMg8NI4WPGjQKo2oGqgjTlz5pjPs/jBlauVsWuBCZNj2ySy59SpU+adLjUH09KlS+Xqq69OJDvSIuBYgPbDMVmnCWg/OmVhIwKOBQi8HJORoKcEOmtA1X/o/LyovvpnzpwRNWhDTy5crYyv/9JLL8l1110nw4cPj38ge20LqPmWVq5cKcePH5cf//jH5rM3thNzIAIeC9B+uAel/XBvR0oEogWyojewjoDfBVQDqn5UY6Ceyzl8+HDCEzF35zlbD0qr5756auFqZWx5NWHy2bNnpSfrJ3bpUnPPoUOH5NFHH5W8vDxZvny5jBw5MjVPhFIHToD2w3mV0n44NyMFArEEuOMVS4btvhdQDeidd97p+1GsrIE21ISxPbFwtTK+OhMmx/dxulf9J23FihUyYsQIgi6neByfNAHaD3vUtB/2nDgKAbsCBF52pTjOtwKqAfX7MMJqoA01YWxPDLTB1crYX10mTI5t42bPa6+9Jr/85S9l0qRJsmTJEiktLXWTDWkQSJoA7Ud8atqP+D7sRcCpAIGXUzGO962AnxtQNdCGmrtITRybzIWrlfG1mTA5vo+Tvdu2bZMnnnhCpk+fLvfff78UFhY6Sc6xCPSoAO1HR37aj44mbEEgUQECr0QFSe87Ab82oLfeemvSB9rgamXsrycTJse2cbpHdaNdv369qOcZ1Z2unJwcp1lwPAK+EKD9aK8G2o92C94h4JUAg2t4JUk+vhNQDaj6UVftVANiNSJqW08tyRxog6uV8WuZCZPj+9jdu2nTJvNOrpo6Yf78+XaTcRwCvhag/XjTrJ+ebC99/QWhcAi4FOCOl0s4kqWOgGo4/PIMWDIH2rACzdSpqeSVlAmTvbHeuHGjGXSpZxgJurwxJRd/CdB++Ks+KA0CqS5A4JXqNUj5bQv4pQFNxkAb3O2K/7VgwuT4Pnb2rlu3TrZu3Wo+uzh37lw7STgGgZQVoP1I2aqj4Aj4SoDAy1fVQWGSIdDTDWgyBtrgblf8bxITJsf3ibe3sbFRHn/8cdm+fbssWLBA1LOLLAikiwDtR7rUNOeJQPcIEHh1jyu5poBAZw3ogQMHklLy7hxog7td8aswXSZMvvvuu2XZsmXxMRzuraqqktWrV8uePXtk8eLFctNNNznMgcMRCIYA7Ucw6pGzQCDZAhkVFRWtyf5QPg8BPwqooOvgwYNm0SZMmGDORdSd5VSfpeY9uu+++zz9mA0bNkgyyu9poZOYmRryXC0qcAjqogIu6yKCmlNr1apVCZ9qeXm5ORfdBx98IHfddZdMnDgx4TzJAIGgCNB+BKUmOQ8Eulcgo9VYEvmIyspKKSkpSSQLLS35aRyOV/BzTKYlUH5Hjx41R0BUO6ZMmWKOjKgd5GClq/p48sknZfDgwba7a3WVnzWCoxpMxM7SVX528og8xu/5qUBXBV6LFi2SmTNnRhbd1Xs/nq+606W6mg5sHmqeU0XWx+b3eO3ata7OUSVSvxNqYuS6ujpZunSpjB8/3nVekQn96Ef5aM8jvwNO3qvvM+2HEzH9WP4e6B5O1/BzKqYfnyw/uhrq7qwhYAZayRoF0euBNni2K/4XWN1lLCoq8iToiv9JPbM3Muj66uffFvWjAjD1vVD73CyHDh2SlStXmknV74VXQZebspAGAb8LdNYF0er+7XXZaT+8FiU/BLpfgMCr+435hBQVSEYD6uVAG1bjrsrN0lFATZi8e/duuf766zvuDMCW6KDLOqVEgi8VsK1YsUJGjBghy5cvl2HDhlnZ8ooAAnEEaD/i4LALgTQWIPBK48rn1O0JdHcD6tVAG9ztil+fQZ4wOVbQZYm4Cb5Ut0zVvVA9I7ZkyRIpLS21suMVAQRsCtB+2ITiMATSRIDAK00qmtNMXKA7G9Abb7zRHJ7bbSm52xVfzpowedasWdKvX7/4B6fY3q6CLut0nARf27ZtM5+Fmz59utx///1SWFhoZcMrAgi4EKD9cIFGEgQCKEDgFcBK5ZS6V6A7GtDJkydLcXGx/P73v3dVeO52xWezJkxWg6UEabEbdFnnbCf4Ut/B9evXi7oYoO505eTkWMl5RQCBBAVoPxIEJDkCKS5A4JXiFUjxe07A6wbU7YPS3O3q+jtgTZhcVlbW9cEpcoTToMs6rXjB16ZNm8wh4+fMmSMLFy60kvCKAAIeC9B+eAxKdgikiACBV4pUFMX0r4BXDajbgTa42xX/uxHECZPdBl2WVGfB18aNG2XLli2iLgDMnz/fOpRXBBDoRgHaj27EJWsEfChA4OXDSqFIqSnQWQNqTWJr94ycDrTB3a6uZffu3WsOEBGUCX8TDbosscjgSwVaW7duldtvv13mzp1rHcIrAggkSYD2I0nQfAwCPSxA4NXDFcDHB08gsgFV80atWbNGrADJztk6GWiDu13xRd955x1Rwe+VV14Z/8AU2etV0GWd7s3n75TRw8ZIr169JDMz0/ZE3lZ6XhFAwFsB2g9vPckNAb8JEHj5rUYoT2AEVAN65513ihrQQQVIdgMwuwNtWMGc+hyWzgX27dsXmAmTvQ66mnLr5ciEfdK7KE/OHauRt99+2/Uky53rsxUBBNwK0H64lSMdAv4WyPJ38SgdAqkvoBpQ9aMCJRWAWXep4gVM6jmb73//+zJ16lRRz351tlj5dLaPbSJqwuQdO3aY3edS3cMKulaveEyGNF4sW5fslqLR/WTgmP4xT+3DHSelpeFCh/1f33Ct1OWfl9Ur/0Wq+lbKyHenSNGnQ+SF/r8xv5vqs9auXdshHRsQQCD5ArQfyTfnExHoTgECr+7UJW8EIgScNKCRA23cc889EbmE3nK3qwNJhw1BmTDZCroGNg+Vq2ZOF2kNneqV942Xy751cYfztjY8dc1WqTvTIJfOGWZtkszsXtIyokbWPPqYNBTWyA1F/0XKrh9h7p8gD8s7ubvlxbe2mne+CL7CbK7eHDlyROrr6820Q4cODc+FVldXJ0ePHjW3Z2RkyLhx41zlT6L0EqD9SK/65myDK0DgFdy65cx8KmC3AVUDbaxYsUJUdznV/TBy4W5XpEbH99aEyWpY9FSeMNkKuq4o+5LMG7NYemVnmic77pujJDM31FP83f99TMq+VCxFl/SVt3/9gYy6sUwKh/U2jxs8cYDc8PP2ucvUM28rV66U/Px8+bsHfyKXXHKJhneDTJEBj/aXVb/+HwRfmozzla997Wty6NAhM+FDDz0kDz74oPlezZM2b968cIatrW2RdHgLbxCILUD7EduGPQikggCBVyrUEmUMpICdBtQaaCMy8OJuV9dfB2vC5C9/+ctdH+zTI6ygS93puv+vfyhT7hsbLunNq6+UU3/6zFx/79ljklOQbQZeB5/5QIouLggHXuV/Pit/eOiAedzZgR/Ls2/8Vi4dPUYmNc6Qk+ur5aSE9oUzNt5c2F4s6jNVcE+3w0gZ9+9feOGFcOCl5pRjQSBRAdqPRAVJj0DPCBB49Yw7n4pAWCBeA6oCLnXHS10lV3fA1MLdrjBdzDfWhMnDhw+PeYyfd0QGXWrY91f/8W3z57uHv2F2NXxs7LNy0/+cJqVfHCDf3Hxt+FQW7vxK+L16U3emXvY9+Z5UjftU3i99U9SQ+qrrav/+HZ8NO3eiRn497Xkz/Vfl2zzzpUkmtqIulnz22Wei7m49/3zIOLEcSY1ASID2g28CAqklwKiGqVVflDbAAqoBvffeezuMgqgG2ti8ebOcPn3aHBpdEahjWToXSPUJk6ODrs7Octw3RkpBab656/TbZ6W2ssF8f3JPhdR/3qgl+WzsCTPoUqNrLl26VBo/Enn/Pz7WflovtIp63ihyiZznS5WJxZ3ADTfcYCZU38vDhw9LeXm5WNvc5UgqBDoK0H50NGELAn4UIPDyY61QprQWiG5An3vuOZk+fbps2bJF1Lxg6j/QLLEFUnnC5GXLlpl3NFVXPxX4RC5ZeZnSKytTcvpmy83/a6r0Ls41d7/80z/JydfLzffb/navfLL3TDhZ5WVH5NjQd2T27NnyN/f/jeTk5Jj7MrMzjIE22n+igy4rA4IvS8L968yZM83EL774oqgBX9Ry7bXXmq/8g4DXArQfXouSHwLeCtDV0FtPckuigOo2lQ5LYWGhOUCEem1sbEy7ob7VgBB2F2vC5EWLFtlN4pvj1F0lNdlzZ0HXnMevki/cZnSbbLspdfwPn4bLPWXxF2TQ5aGug1O/N15KxhWa+44UHpQThYdk5MiRMqR/mfzuZ/9PbnzgKhk0ob/5E86g7U2sIR5U8GUNNa8Cw/Xr10cnZT2OgPWcoepiOGHCBPPIGTNmxEnBrmQI0H4kQ7nnP8NJ+9HzpaUE6SCQVVlZmfB5epFHZCHIL1LD+ft083MulFopzp07J+qnoaFB1Gh96bY4+T7v2rXLHLb7sssuk1jpYm136+pVfk1NTTGL0NJ4QZqNn6ycXtJY3STPzntZFu642Tz+0luGhtNdPm9k+P3Q6tHycd6HcuL4ifDw5b9f8ozkZORK/meFktvQR7KaciSvtq8sfOavpTCzKJw23huvztf6jKDm19LSYp6iups4fvx4c4TDkydPmtuGDWsf4j/R8080vVUP1mu65Wedd1BfaT8S/z9u5Hcj3X4/ON/I2nf+vjO/rJKSEuc5RaRQmSaaR0R25n+WyC9SxNn7dKsPpZN9xy5nSCl69Nm2cmenaPmdFrvpmdBdAbt/D9SEybt37zYnTI6Vxs+/H+pO0oIFC8y7XuoOU2RXwx0/flO2LXtDzME12iD7DMkzB9rY+t0/yhfvGSNDJhXJa/90UMYZd8ZKxhuBVUu+XP76bPPohj41MuzrRTJgZp6cOXNGKioq5NixY1JuDPiglof+4S3zNeeqfOldXSg59b0luz7PCMoK5I3M7VLR8rHZxfWRRx7h770p1fU/mZmhof+Liork5ptvDg8tr95HTooe67va9ScI7aUdpC6Oof3oAihFdzttP+ycpp/bD1V+ymenFmMfkyw/uhrGrgP2IIBACgkEYcLkVatWyQ9/+EPzOa/I4Ku5PnT3xKqOvsMKJL8oV9RIhH957qiMNubuUoHX4f84IUOnlJiBl3Wses2t6SPD+4yWa+ZMlDPvn5eqj2pFrhBpbG6UinPlklHWKMcOn5A31/1ZGvJr5MyQj6QlK3QHbqD0F/UzevRo2bBhg6jJgAcNGmQGD6WlpSk9T1qkUXe+v/rqq+UXv/iF+RE839Wd0uSNAAII+FuAwMvf9UPpEEDAhkBQJkxWp7p27Vpz/iw1bYAVfOUX50mZEVBl986SpppmufGR0KiWR146pen0LsmXvmWh0Q61HREre/75z3J46wlzS+/B+ZLXL0e+/fJX5LLhV8jpv2s/8P8OXC9V+Wdk7Nixcsstt5hXU9WIfPv375fm5ubwgQUFBWZQNnjwYDMIU68qIFM/1mAe4YPT6E1WVnvzOm3atPCZq+e7Yg1mEj6INwgggAACgRRobxkCeXqcFAIIpINAECZMjqyn6ODre3/1E7n1qVDXy8r3zkvp5AFyoemC7Fq5PzKZzHlsqhQO72N2Qaw6WaPt62xl3pYbwpMtnzteHT5EBXwVrUb3wvFTtMFcrK4Yn376qTm9walTp8z5qdR2Nd+ceo1cVDe6UaNGmd0TBwwYYAZjqpudCs6CvqiBUiIXNYeX5ae2q3UWBBBAAIH0EiDwSq/65mwRCKRAqk+Y3FmlRAZfTxz4ufR/sJ/UVtTJfz5/XPoO7SPDpg2WpurQnac3Hn1XPnzpE2M+r3q5dM4wObzlhER3Tzz+2il59//0k4q/WE8Liuz40VsyfMZgqTpVK3/+7YdmMcygKyv0TJcqQ2eLCpzUz6RJk7TdatRNFYypHxWcqTuR6vXVV1+V6ur2wE7dDRozZoz07t2brouaICsIIIAAAkEWIPAKcu1ybgikgUCqT5gcr4oig6+HNy8PD7hx/kS1vGv8WEvlXz4X9aOW43/Qux9ax1S8e9YcoMNaV6/HXvnE/LG22Qm6rGM7e1VdC0eMGGH+RO9XQZgKyNRE4KrLorr7Q9fFaCXWEUAAAQSCLEDgFeTa5dwQSAOBVJ4w2U71RAZf1jNfdtI5PSbRoKurz+vXr5/5DJh6ZsxarK53dF20RHhFAAEEEAiyAIFXkGuXc0Mg4AKpPGGyk6rp7uCru4Ours6VrotdCbEfAQQQQCAIAgReQahFzgGBNBVQAzqoeZJmzpwZeIHuCr56OuiKV3F0XYynwz4EEEAAgVQTIPBKtRqjvAggYAqoCZN37NhhTpicLiReB19+Drq6qlO6LnYlxH4EEEAAAb8JEHj5rUYoDwII2BIIwoTJtk406iCvgq9UDrqiSDqs0nWxAwkbEEAAAQR8IEDg5YNKoAgIIOBMIEgTJjs789DRiQZfQQ664nnSdTGeDvsQQAABBLpbgMCru4XJHwEEPBcI2oTJboDcBl/pGnR1ZUzXxa6E2I8AAgggkKgAgVeigqRHAIGkCwRxwmQ3iE6DL4IuN8piThbNhNHu7EiFAAIIINAuQODVbsE7BBBIAYEgT5jsht9u8EXQ5UY3fhq6Lsb3YS8CCCCAgC5A4KV7sIYAAj4XCPqEyW74uwq+CLrcqCaWhq6LifmRGgEEEAiiAIFXEGuVc0IgoALpMmGym+qLFXwRdLnR7N40jLrYvb7kjgACCPhVgMDLrzVDuRBAoINAOk2Y3OHkbWyIDr5Ukoqsj2XKlCmi9rH4W4Cui/6uH0qHAAIIJCpA4JWoIOkRQCApAuk4YbIb2MjgS6Un6HKj6L80dF30X51QIgQQQMCpQEZFRUWr00Qcj4AfBGbPnm0WI/uOXX4oju0yZGSIFPXrZft4dWBdfavUNcT+Vb328hyZOylL9n7UIk+/2uAob78e3PTMDLNoO3fuNF+3bNkiahj5hx9+WAoKCvxabN+Ua9myZWZZVq1a5ZsyUZDkCjQ2NorRxkt5ebn5Wl1dLZWVlXLs2DGpra0NFyYrK0tGjhwphYWFMmDAACkuLpaBAwfKoEGDAvu7lqrtR7jSjDczL8uSiWVZ8uQfGmT4wF7yrck5suP9Jtn9XrN5WLZxaf2KkVny5vuh9ci0ke9vnJQjN38hS5Y/VycNjbHbmcg0fn8f3X74vbyUL30EskpKShI6W/VHPNE8IgtAfpEazt+nm59zoZ5PUdS3l7z4HWeBw84jzfKDze3/UYo+i7O1F2TqRVky2WiE1+1qkAsXoo9I3XX190VNmKyCrjlz5sjFF1/s+mTS6fdj/fr15n+y+fvs+usSCL+ysrJOAdTv1KlTp+T06dNmYKZ+N1SAtn//fmlubv+PurrIMXr0aHNIfXXXTT2fVlpaav6orpHxFr//vsUru9/33T4tV5bPzDWLuedYs4wdnCm3jcuWPCPYUoHWXTPy5L99KUeyjGt8//3lBvm3vbEvyN1tHHdpcS+ZNy0nMBfurPrj758l4fzV77+/qVo+uho6/y6SAgFPBNR1xYOn2yOkiUNCd8EOll+Q1rbNQwszpDjfuEUWtbyytK/0yem4XTWye3/QT1qjLlre+1ytvNXFVc+oj/DVKhMm+6o6KEwABOi6mJqVOLCol/zitt5y2aBQe/HTF+vNv+0q8FLL1SOyZPcD/aSX0Tw0tIis2dMgz73ZHnQNNe6MlRgX/yKX1483G4FXjsy/IkfePmkkilrO1bbKsdMdt0cdxioCCNgQIPCygcQhCHSHQI3RpeOu31SHs/6jETCpwOmup6vDgdPiWXlyz5UdryrnZWeYDeuFiAAr8r2VqWp81ZKT4r/pTJgcqkf+RSAZAoy6mAxl559x+cWZ8vR/7SPWJbcm4wJdedUF+fntveUqI+BSi7ogp7b/6o+N8tRr9TK0pJf0MtqVlra46Ve395GyvlYOehnURb61Rl7Ry6fVrTLn8arozawjgIALgRT/75iLMyYJAj4RyM7MkFuntAdVVpCktll3rP5qqH5lMrroX3rkfPQmbf13iwtkZP/4eWgJfLjChMk+rBSKlJYCjLrYs9V+1OgNoUKmD85ckNFG10C1LDK6B6ou5tZy4lyrfOPJqnB387Xz+khRXoZc9y9Vcq6qVfZ/0iwtpe3HW+mG9QsFYx+dj7ia17bzUHl711PreF4RQMCdQMffPnf5kAoBBBwK5Bo9Q356XV6HVH8/u+O2Dgel0QYmTE6jyuZUU1aArovdX3U1Rpe/OzbWyF+MQZT2/aif+YEPPFsnC6bnSmVNq/nM13Cje/obfxvapwZyUhf0VG8IFXSp5e//vc58jf7nrbb8blvDna1oG9YR8FKAwMtLTfJCwIGAagxfOdp+JXH2qNCv48vGNuuO1/hBmTKkIHQlsrOs190Vf5COYQ5HT+zsM3pym3qw/8CBA7Jo0aKeLAafjQACCQjQdTEBvKikKuhSS4vRnbCxuVWqjWBszY56UUHW1OGZ8sXSTDPYspKdrRd55u1Ga5VXBBDoYQECrx6uAD4+fQVqm1q1kQqtZ7zU6IVW4BXrGS9LzXrA2loP2qu6il5UVCQzZ84M2qlxPgikvQBdF919Bb4wLFPqjaBLLa8u6xs3k70nm+V3f2wfXEMdPHl0luSExuIIp7Uu700fq/+3sNGI8/Z90H6BMJyANwgg4EpA/w1zlQWJEEDAjYB6xuurX+z4jJfaZgVek8o6fz4r29ismt2fvWRczrSxvNt2ldTGob45JC8vz5yq4vrrr/dNmSgIAggkR4Cui7Gd++RmhEe1DYVfHY+1AqmL2p7dijziV1/vrd0Vi9z3mDFiYuSi8p/yz/GfJY48nvcIIBBfgMArvg97EfBcoLhtRCn1jNc/3NDxea6fXd9xW2QhStoGy6g2JlR+fl9wu5D079/fPO1Zs2ZFnj7vEUAgzQW86Lo4atQoOXHiREpLHvv8gnzjidDIuL9eWCD9jGm95j9VLU3GDao7ZuTKA18OzfMVfZJ/MgbYKMzTL+qpebzU8r4xcEfkUtsUucZ7BBBIVIDAK1FB0iPgUGDskFAfj3qjC8fej9q7cFxzcejX8VVjMkxrGVuSKYOjnvEaaczDopZP2h6Wto4N2qua2LWqqkrUlW8WBBBAoCsBJ10Xn376aWOI9RYJwn+C1PNdk0p7mSMZqqCrq2XxhtoOh1iDa3zrX9unOOlwEBsQQCBhgSD8zUkYgQwQSKbAGGNeFbXsMgKsH/2uvQG0nvF6YFP8Z7ymDA/92n54pm1ilmQWPsmfVVNTk+RP5OMQQCCIAtFdFx9++OHAnOYU45kt1bWw3BjZkAUBBPwtQODl7/qhdAEU+MrYbPOsVODV1ZId9QC0Ov5bE0PpXzsa/MCrKx/2I4AAAukmUGcMzNRg/PmvrLkgOdkZ8k9z8k2CA6ebZcPdBfLSB01y8vNWs9vg7hO0E+n2/eB8/S1A4OXv+qF0ARNQo0kV52eYA2O88l7szvPLbsqTvsYD1NddEvoVPW88z6WWWZfnSEFOhqh+99sPBPf5roBVO6eDAAIIeCLQ25gMWS0rXqmXa0ZmyevGqIZqrq4m49GsGqNJGGd0RR83MNdsY9REy+frWyXTuIBn9KqUS4dmyiNf0wfPsAoVylXkue90PkriT7fVykEu9llcvCLgWoDAyzUdCRFwLjCu7fmuF40rklVxuoVMHZYl1sPO6lM2vhUKsm67PPQr+9Q+fXhg5yUhBQIIIIBAqgls/U6BeVEustxqQIyl/1Yrpz+7IM/ub5TvXZMrUy8KtSEPXZcnP7g6V65ZVSUXFWWKmmA53hJrf2m/TDko3D2LZ8c+BOwIEHjZUeIYBDwS2LCrwZj0UuSFdzrerbrFeKg5z+hFqIaS/8kLdTLxokxpMO5sqTtjdW13vH7wbJ2suj1ffmPkw4IAAgggkF4Cv3y9UeZfkW10I2yRXUdaZLdxEe9cdfuzXf95skW+u7FWsoy7XLdPy5UFV+TIv74Zam92H26Sb7p8NviTqNEO00uds0XAOwECL+8syQkBWwKb3ug8aKo42z6M75FTLaJ+opdGo2//EqNRZUEAAQQQSD+Bf3+zQdRPV0uz0Xz89vUG88c6tqGxVY520q5Y+3lFAIHuF9Ancuj+z+MTEEAAAQQQQAABBBBAAIG0EyDwSrsq54QRQAABBBBAAAEEEEAg2QIEXskW5/MQQAABBBBAAAEEEEAg7QQyKioq2p/KTLvT54RTWWD27Nlm8bPv2JXKp0HZYwg0PTPD3LNz584YR7AZAQQQcCdA++HOLVVS0X6kSk2lXzmzSkpKEjrryspKSTSPyAKQX6SG8/fp5udciBSpJsDfF/c1lm5/Dzhf998VlTLd/BLTInUqCNB+uK+ldPt7kKzzpauh++8kKRFAAAEEEEAAAQQQQAABWwIEXraYOAgBBBBAAAEEEEAAAQQQcC9A4OXejpQIIIAAAggggAACCCCAgC0BAi9bTByEAAIIIIAAAggggAACCLgXIPByb0dKBBBAAAEEEEAAAQQQQMCWAIGXLSYOQgABBBBAAAEEEEAAAQTcCxB4ubcjJQIIIIAAAggggAACCCBgS4DAyxYTByGAAAIIIIAAAggggAAC7gUIvNzbkRIBBBBAAAEEEEAAAQQQsCVA4GWLiYMQQAABBBBAAAEEEEAAAfcCBF7u7UiJAAIIIIAAAggggAACCNgSIPCyxcRBCCCAAAIIIIAAAggggIB7AQIv93akRAABBBBAAAEEEEAAAQRsCRB42WLiIAQQQAABBBBAAAEEEEDAvQCBl3s7UiKAAAIIIIAAAggggAACtgQIvGwxcRACCCCAAAIIIIAAAggg4F6AwMu9HSkRQAABBBBAAAEEEEAAAVsCWbaO4iAEfCzQ9MwMH5eOoiGAAAII+FWA9sOvNUO5EAimQEZFRUVrME+Nswq6wOzZs4N+ipyfIbBz504cEEAAAU8FaD885fRtZrQfvq2atC1YRquxJHL2lZWVUlJSkkgWWlry0zgcr+DnmExLgJ/G4XgFP8dkWgL8NA7HK/g5JtMS4KdxOF7BzzGZlgA/jcPxCn6OybQEyfLjGS+NnRUEEEAAAQQQQAABBBBAwHsBAi/vTckRAQQQQAABBBBAAAEEENAECLw0DlYQQAABBBBAAAEEEEAAAe8FCLy8NyVHBBBAAAEEEEAAAQQQQEATIPDSOFhBAAEEEEAAAQQQQAABBLwXIPDy3pQcEUAAAQQQQAABBBBAAAFNgMBL42AFAQQQQAABBBBAAAEEEPBegMDLe1NyRAABBBBAAAEEEEAAAQQ0AQIvjYMVBBBAAAEEEEAAAQQQQMB7AQIv703JEQEEEEAAAQQQQAABBBDQBAi8NA5WEEAAAQQQQAABBBBAAAHvBQi8vDclRwQQQAABBBBAAAEEEEBAEyDw0jhYQQABBBBAAAEEEEAAAQS8FyDw8t6UHBFAAAEEEEAAAQQQQAABTYDAS+NgBQEEEEAAAQQQQAABBBDwXoDAy3tTckQAAQQQQAABBBBAAAEENAECL42DFQQQQAABBBBAAAEEEEDAewECL+9NyREBBBBAAAEEEEAAAQQQ0AQyKioqWrUtrCCAAAIIIIAAAggggAACCHgqkNFqLInkWFlZKSUlJYlkoaUlP43D8Qp+jsm0BPhpHI5X8HNMpiXAT+NwvIKfYzItAX4ah+MV/ByTaQnw0zgcr+DnmExLkCw/uhpq7KwggAACCCCAAAIIIIAAAt4LEHh5b0qOCCCAAAIIIIAAAggggIAmQOClcbCCAAIIIIAAAggggAACCHgvQODlvSk5IoAAAggggAACCCCAAAKaAIGXxsEKAggggAACCCCAAAIIIOC9AIGX96bkiAACCCCAAAIIIIAAAghoAgReGgcrCCCAAAIIIIAAAggggID3AgRe3puSIwIIIIAAAggggAACCCCgCRB4aRysIIAAAggggAACCCCAAALeCxB4eW9KjggggAACCCCAAAIIIICAJkDgpXGwggACCCCAAAIIIIAAAgh4L0Dg5b0pOSKAAAIIIIAAAggggAACmgCBl8bBCgIIIIAAAggggAACCCDgvQCBl/em5IgAAggggAACCCCAAAIIaAIEXhoHKwgggAACCCCAAAIIIICA9wIEXt6bkiMCCCCAAAIIIIAAAgggoAkQeGkcrCCAAAIIIIAAAggggAAC3gsQeHlvSo4IIIAAAggggAACCCCAgCaQUVFR0aptYQUBBBBAAAEEEEAAAQQQQMBTgYxWY0kkx8rKSikpKUkkCy0t+Wkcjlfwc0ymJcBP43C8gp9jMi0BfhqH4xX8HJNpCfDTOByv4OeYTEuAn8bheAU/x2RagmT50dVQY2cFAQQQQAABBBBAAAEEEPBegMDLe1NyRAABBBBAAAEEEEAAAQQ0AQIvjYMVBBBAAAEEEEAAAQQQQMB7AQIv703JEQEEEEAAAQQQQAABBBDQBAi8NA5WEEAAAQQQQAABBBBAAAHvBQi8vDclRwQQQAABBBBAAAEEEEBAEyDw0jhYQQABBBBAAAEEEEAAAQS8FyDw8t6UHBFAAAEEEEAAAQQQQAABTYDAS+NgBQEEEEAAAQQQQAABBBDwXoDAy3tTckQAAQQQQAABBBBAAAEENAECL42DFQQQQAABBBBAAAEEEEDAewECL+9NyREBBBBAAAEEEEAAAQQQ0AQIvDQOVhBAAAEEEEAAAQQQQAAB7wUIvLw3JUcEEEAAAQQQQAABBBBAQBMg8NI4WEEAAQQQQAABBBBAAAEEvBcg8PLelBwRQAABBBBAAAEEEEAAAU2AwEvjYAUBBBBAAAEEEEAAAQQQ8F6AwMt7U3JEAAEEEEAAAQQQQAABBDSBjIqKilZtCysIIIAAAggggAACCCCAAAKeCmS0GksiOVZWVkpJSUkiWWhpyU/jcLyCn2MyLQF+GofjFfwck2kJ8NM4HK/g55hMS4CfxuF4BT/HZFoC/DQOxyv4OSbTEiTLj66GGjsrCCCAAAIIIIAAAggggID3AgRe3puSIwIIIIAAAggggAACCCCgCRB4aRysIIAAAggggAACCCCAAALeCxB4eW9KjggggAACCCCAAAIIIICAJkDgpXGwggACCCCAAAIIIIAAAgh4L0Dg5b0pOSKAAAIIIIAAAggggAACmsD/B50/McKNBF3wAAAAAElFTkSuQmCC;" vertex="1" parent="1">
          <mxGeometry x="740" y="110" width="862" height="594" as="geometry" />
        </mxCell>
        <mxCell id="xO7IIF5kWU0KsEjzhjzZ-9" value="" style="endArrow=none;html=1;rounded=0;exitX=0.5;exitY=0;exitDx=0;exitDy=0;" edge="1" parent="1" source="xO7IIF5kWU0KsEjzhjzZ-7">
          <mxGeometry relative="1" as="geometry">
            <mxPoint x="180" y="470" as="sourcePoint" />
            <mxPoint x="120" y="410" as="targetPoint" />
          </mxGeometry>
        </mxCell>
        <mxCell id="xO7IIF5kWU0KsEjzhjzZ-10" value="仓库编号" style="ellipse;whiteSpace=wrap;html=1;align=center;" vertex="1" parent="1">
          <mxGeometry x="70" y="370" width="100" height="40" as="geometry" />
        </mxCell>
        <mxCell id="xO7IIF5kWU0KsEjzhjzZ-11" value="仓库名称" style="ellipse;whiteSpace=wrap;html=1;align=center;" vertex="1" parent="1">
          <mxGeometry x="180" y="360" width="100" height="40" as="geometry" />
        </mxCell>
        <mxCell id="xO7IIF5kWU0KsEjzhjzZ-12" value="仓库地址" style="ellipse;whiteSpace=wrap;html=1;align=center;" vertex="1" parent="1">
          <mxGeometry x="300" y="360" width="100" height="40" as="geometry" />
        </mxCell>
        <mxCell id="xO7IIF5kWU0KsEjzhjzZ-13" value="" style="endArrow=none;html=1;rounded=0;entryX=0.5;entryY=1;entryDx=0;entryDy=0;" edge="1" parent="1" target="xO7IIF5kWU0KsEjzhjzZ-11">
          <mxGeometry relative="1" as="geometry">
            <mxPoint x="178" y="480" as="sourcePoint" />
            <mxPoint x="130" y="420" as="targetPoint" />
          </mxGeometry>
        </mxCell>
        <mxCell id="xO7IIF5kWU0KsEjzhjzZ-14" value="" style="endArrow=none;html=1;rounded=0;exitX=0.61;exitY=1.025;exitDx=0;exitDy=0;exitPerimeter=0;entryX=0.6;entryY=0.075;entryDx=0;entryDy=0;entryPerimeter=0;" edge="1" parent="1" source="xO7IIF5kWU0KsEjzhjzZ-12" target="xO7IIF5kWU0KsEjzhjzZ-7">
          <mxGeometry relative="1" as="geometry">
            <mxPoint x="190" y="500" as="sourcePoint" />
            <mxPoint x="140" y="430" as="targetPoint" />
          </mxGeometry>
        </mxCell>
      </root>
    </mxGraphModel>
  </diagram>
  <diagram id="1rXLoHWWc9XeZz1ofWJr" name="第 2 页">
    <mxGraphModel dx="1428" dy="766" grid="1" gridSize="10" guides="1" tooltips="1" connect="1" arrows="1" fold="1" page="1" pageScale="1" pageWidth="827" pageHeight="1169" math="0" shadow="0">
      <root>
        <mxCell id="0" />
        <mxCell id="1" parent="0" />
      </root>
    </mxGraphModel>
  </diagram>
</mxfile>
